<svg xmlns="http://www.w3.org/2000/svg" width="128" height="128" viewBox="0 0 32 32"><g fill="none"><path fill="url(#IconifyId18fc4c3fe832ed53e8981)" d="M4 25.942C4 28.174 5.763 30 7.918 30h16.164C26.237 30 28 28.073 28 25.84V6.43c0-1.3-1.59-1.9-2.485-1L20.975 10h-9.812L6.5 5.43c-.9-.9-2.5-.3-2.5 1z"/><path fill="url(#IconifyId18fc4c3fe832ed53e8982)" d="M4 25.942C4 28.174 5.763 30 7.918 30h16.164C26.237 30 28 28.073 28 25.84V6.43c0-1.3-1.59-1.9-2.485-1L20.975 10h-9.812L6.5 5.43c-.9-.9-2.5-.3-2.5 1z"/><path fill="url(#IconifyId18fc4c3fe832ed53e8983)" d="M4 25.942C4 28.174 5.763 30 7.918 30h16.164C26.237 30 28 28.073 28 25.84V6.43c0-1.3-1.59-1.9-2.485-1L20.975 10h-9.812L6.5 5.43c-.9-.9-2.5-.3-2.5 1z"/><path fill="url(#IconifyId18fc4c3fe832ed53e8984)" d="M4 25.942C4 28.174 5.763 30 7.918 30h16.164C26.237 30 28 28.073 28 25.84V6.43c0-1.3-1.59-1.9-2.485-1L20.975 10h-9.812L6.5 5.43c-.9-.9-2.5-.3-2.5 1z"/><path fill="url(#IconifyId18fc4c3fe832ed53e8985)" d="M4 25.942C4 28.174 5.763 30 7.918 30h16.164C26.237 30 28 28.073 28 25.84V6.43c0-1.3-1.59-1.9-2.485-1L20.975 10h-9.812L6.5 5.43c-.9-.9-2.5-.3-2.5 1z"/><path fill="url(#IconifyId18fc4c3fe832ed53e9005)" d="M4 25.942C4 28.174 5.763 30 7.918 30h16.164C26.237 30 28 28.073 28 25.84V6.43c0-1.3-1.59-1.9-2.485-1L20.975 10h-9.812L6.5 5.43c-.9-.9-2.5-.3-2.5 1z"/><g filter="url(#IconifyId18fc4c3fe832ed53e8956)"><rect width="2.727" height="3.698" x="5.054" y="21.82" fill="#D67908" rx="1.363"/></g><g filter="url(#IconifyId18fc4c3fe832ed53e8957)"><path fill="url(#IconifyId18fc4c3fe832ed53e8986)" d="M20.75 10.2c-2.983.108 5.227 4.954 5.227 4.954l1.125-9.062c.055-.461-.364-.954-1.25-.131L21.84 9.913c-.187.184-.408.25-.702.288c-.15.02-.236-.006-.386 0"/></g><path fill="url(#IconifyId18fc4c3fe832ed53e8987)" d="m6.133 13.503l2.8-2.6c.32-.3.32-.78 0-1.07L5.918 7.156c-.383-.336-1.175-.226-1.175.607v5.2c0 .834.88 1.02 1.39.54"/><g filter="url(#IconifyId18fc4c3fe832ed53e8958)"><path fill="url(#IconifyId18fc4c3fe832ed53e8988)" d="M26.49 5.652a.38.38 0 0 1 .732.142v2.245l-1.417-.687z"/></g><g filter="url(#IconifyId18fc4c3fe832ed53e8959)"><path stroke="#FFDF70" stroke-linecap="round" d="m5.446 5.727l3.375 3.22c.754.718.768 1.918.031 2.655v0"/></g><g filter="url(#IconifyId18fc4c3fe832ed53e8960)"><path fill="url(#IconifyId18fc4c3fe832ed53e8989)" d="m14.805 20.65l.065-.015a3.04 3.04 0 0 1 1.438.015c.52.098.832.696.392 1.126l-.55.601c-.27.27-.864.27-1.134 0l-.543-.601c-.449-.508-.168-1.016.332-1.126"/></g><path fill="url(#IconifyId18fc4c3fe832ed53e9006)" d="m15.227 20.207l.064-.015a3.03 3.03 0 0 1 1.438.015c.521.098.832.695.392 1.125l-.55.602c-.27.27-.864.27-1.134 0l-.542-.602c-.45-.508-.168-1.016.332-1.125"/><g filter="url(#IconifyId18fc4c3fe832ed53e8961)"><ellipse cx="16.27" cy="20.741" fill="url(#IconifyId18fc4c3fe832ed53e8990)" rx=".762" ry=".274"/></g><g filter="url(#IconifyId18fc4c3fe832ed53e8962)"><path stroke="url(#IconifyId18fc4c3fe832ed53e8991)" stroke-linecap="round" stroke-miterlimit="10" stroke-width="1.2" d="m24.785 22.892l3.805-1.812"/></g><g filter="url(#IconifyId18fc4c3fe832ed53e8963)"><path stroke="url(#IconifyId18fc4c3fe832ed53e8992)" stroke-linecap="round" stroke-miterlimit="10" stroke-width="1.2" d="m24.785 24.924l1.927 1.365"/></g><path stroke="url(#IconifyId18fc4c3fe832ed53e8993)" stroke-linecap="round" stroke-miterlimit="10" stroke-width="1.2" d="m25.566 22.54l3.805-1.813"/><g filter="url(#IconifyId18fc4c3fe832ed53e8964)"><path stroke="#FF8485" stroke-linecap="round" stroke-miterlimit="10" stroke-width=".3" d="m25.566 22.71l3.805-1.812"/></g><g filter="url(#IconifyId18fc4c3fe832ed53e8965)"><ellipse cx="29.606" cy="20.581" fill="#FFDD86" rx=".184" ry=".166" transform="rotate(-22.745 29.606 20.58)"/></g><path stroke="url(#IconifyId18fc4c3fe832ed53e8994)" stroke-linecap="round" stroke-miterlimit="10" stroke-width="1.2" d="m25.564 24.67l3.801 1.818"/><g filter="url(#IconifyId18fc4c3fe832ed53e8966)"><path stroke="#FF8485" stroke-linecap="round" stroke-miterlimit="10" stroke-width=".3" d="m25.498 24.55l3.802 1.818"/></g><g filter="url(#IconifyId18fc4c3fe832ed53e8967)"><ellipse cx="29.54" cy="26.368" fill="#FFDD86" rx=".184" ry=".166" transform="rotate(28.298 29.54 26.368)"/></g><path stroke="url(#IconifyId18fc4c3fe832ed53e8995)" stroke-linecap="round" stroke-miterlimit="10" stroke-width="1.2" d="M6.528 24.681L2.727 26.5"/><g filter="url(#IconifyId18fc4c3fe832ed53e8968)"><path stroke="#FF8485" stroke-linecap="round" stroke-miterlimit="10" stroke-width=".3" d="m6.593 24.56l-3.801 1.82"/></g><g filter="url(#IconifyId18fc4c3fe832ed53e8969)"><ellipse fill="#FFDD86" rx=".184" ry=".166" transform="scale(-1 1)rotate(-19.477 68.068 31.615)"/></g><path stroke="url(#IconifyId18fc4c3fe832ed53e8996)" stroke-linecap="round" stroke-miterlimit="10" stroke-width="1.2" d="m6.54 22.524l-3.814-1.793"/><g filter="url(#IconifyId18fc4c3fe832ed53e8970)"><path stroke="#FF8485" stroke-linecap="round" stroke-miterlimit="10" stroke-width=".3" d="M6.674 22.499L2.86 20.705"/></g><g filter="url(#IconifyId18fc4c3fe832ed53e8971)"><ellipse fill="#FFDD86" rx=".184" ry=".166" transform="scale(-1 1)rotate(-70.238 12.623 16.051)"/></g><path fill="url(#IconifyId18fc4c3fe832ed53e8997)" d="M20.418 23.055c0 2.44-1.982 4.336-4.422 4.336c-2.44 0-4.312-1.943-4.312-4.383c0 0 1.804 2.133 4.312 0c2.352 2.078 4.422.047 4.422.047"/><g filter="url(#IconifyId18fc4c3fe832ed53e8972)"><path fill="url(#IconifyId18fc4c3fe832ed53e8998)" d="M22.102 10.102h4.585v14.186h-4.585z"/></g><path fill="#FFB915" d="m25.833 13.503l-2.8-2.6a.716.716 0 0 1 0-1.07l3.015-2.677c.382-.336 1.175-.226 1.175.607v5.2c0 .834-.88 1.02-1.39.54"/><path fill="url(#IconifyId18fc4c3fe832ed53e8999)" d="m25.833 13.503l-2.8-2.6a.716.716 0 0 1 0-1.07l3.015-2.677c.382-.336 1.175-.226 1.175.607v5.2c0 .834-.88 1.02-1.39.54"/><g filter="url(#IconifyId18fc4c3fe832ed53e8973)"><path fill="url(#IconifyId18fc4c3fe832ed53e9007)" d="m26.634 7.367l-3.625 3.125l3.546 2.813z"/></g><g filter="url(#IconifyId18fc4c3fe832ed53e8974)"><path stroke="url(#IconifyId18fc4c3fe832ed53e9000)" stroke-linecap="round" stroke-width=".5" d="m23.727 10.29l2.532 2.733"/></g><g filter="url(#IconifyId18fc4c3fe832ed53e8975)"><path fill="#FEB33E" d="M5.223 7.5v5.907l3.469-3.09z"/></g><g filter="url(#IconifyId18fc4c3fe832ed53e8976)"><path stroke="#FFE7A3" stroke-linecap="round" stroke-width=".15" d="M5.223 7.727v5.187"/></g><g filter="url(#IconifyId18fc4c3fe832ed53e8977)"><path fill="url(#IconifyId18fc4c3fe832ed53e9001)" fill-rule="evenodd" d="M10.976 19.276a1.064 1.064 0 0 0-.204.566a.55.55 0 0 1-1.1-.036a2.16 2.16 0 0 1 .428-1.196c.322-.423.84-.742 1.576-.742c.742 0 1.266.335 1.59.763c.306.404.429.88.436 1.22a.55.55 0 0 1-1.1.024a1.095 1.095 0 0 0-.213-.58c-.134-.176-.343-.327-.713-.327c-.378 0-.578.147-.7.308" clip-rule="evenodd"/></g><g filter="url(#IconifyId18fc4c3fe832ed53e8978)"><path fill="url(#IconifyId18fc4c3fe832ed53e9002)" fill-rule="evenodd" d="M18.945 19.276a1.064 1.064 0 0 0-.204.566a.55.55 0 0 1-1.1-.036a2.16 2.16 0 0 1 .428-1.196c.322-.423.84-.742 1.576-.742c.742 0 1.265.335 1.59.763c.306.404.428.88.436 1.22a.55.55 0 0 1-1.1.024a1.095 1.095 0 0 0-.213-.58c-.134-.176-.343-.327-.713-.327c-.378 0-.578.147-.7.308" clip-rule="evenodd"/></g><path stroke="url(#IconifyId18fc4c3fe832ed53e9008)" stroke-linecap="round" stroke-width="1.1" d="M10.55 19.414c.016-.474.341-1.406 1.454-1.406c1.112 0 1.466.971 1.476 1.445"/><path stroke="url(#IconifyId18fc4c3fe832ed53e9003)" stroke-linecap="round" stroke-width="1.1" d="M10.55 19.414c.016-.474.341-1.406 1.454-1.406c1.112 0 1.466.971 1.476 1.445"/><path stroke="url(#IconifyId18fc4c3fe832ed53e9009)" stroke-linecap="round" stroke-width="1.1" d="M18.52 19.414c.015-.474.34-1.406 1.453-1.406c1.112 0 1.466.971 1.476 1.445"/><path stroke="url(#IconifyId18fc4c3fe832ed53e9004)" stroke-linecap="round" stroke-width="1.1" d="M18.52 19.414c.015-.474.34-1.406 1.453-1.406c1.112 0 1.466.971 1.476 1.445"/><g filter="url(#IconifyId18fc4c3fe832ed53e8979)"><ellipse cx="21.539" cy="19.367" fill="#715167" rx=".164" ry=".227"/></g><g filter="url(#IconifyId18fc4c3fe832ed53e8980)"><ellipse cx="13.645" cy="19.367" fill="#715167" rx=".164" ry=".227"/></g><defs><filter id="IconifyId18fc4c3fe832ed53e8956" width="5.727" height="6.698" x="3.554" y="20.32" color-interpolation-filters="sRGB" filterUnits="userSpaceOnUse"><feFlood flood-opacity="0" result="BackgroundImageFix"/><feBlend in="SourceGraphic" in2="BackgroundImageFix" result="shape"/><feGaussianBlur result="effect1_foregroundBlur_6893_5267" stdDeviation=".75"/></filter><filter id="IconifyId18fc4c3fe832ed53e8957" width="9.009" height="11.636" x="19.098" y="4.519" color-interpolation-filters="sRGB" filterUnits="userSpaceOnUse"><feFlood flood-opacity="0" result="BackgroundImageFix"/><feBlend in="SourceGraphic" in2="BackgroundImageFix" result="shape"/><feGaussianBlur result="effect1_foregroundBlur_6893_5267" stdDeviation=".5"/></filter><filter id="IconifyId18fc4c3fe832ed53e8958" width="3.417" height="4.625" x="24.805" y="4.414" color-interpolation-filters="sRGB" filterUnits="userSpaceOnUse"><feFlood flood-opacity="0" result="BackgroundImageFix"/><feBlend in="SourceGraphic" in2="BackgroundImageFix" result="shape"/><feGaussianBlur result="effect1_foregroundBlur_6893_5267" stdDeviation=".5"/></filter><filter id="IconifyId18fc4c3fe832ed53e8959" width="8.95" height="10.729" x="2.946" y="3.227" color-interpolation-filters="sRGB" filterUnits="userSpaceOnUse"><feFlood flood-opacity="0" result="BackgroundImageFix"/><feBlend in="SourceGraphic" in2="BackgroundImageFix" result="shape"/><feGaussianBlur result="effect1_foregroundBlur_6893_5267" stdDeviation="1"/></filter><filter id="IconifyId18fc4c3fe832ed53e8960" width="3.661" height="3.024" x="13.748" y="20.056" color-interpolation-filters="sRGB" filterUnits="userSpaceOnUse"><feFlood flood-opacity="0" result="BackgroundImageFix"/><feBlend in="SourceGraphic" in2="BackgroundImageFix" result="shape"/><feGaussianBlur result="effect1_foregroundBlur_6893_5267" stdDeviation=".25"/></filter><filter id="IconifyId18fc4c3fe832ed53e8961" width="2.723" height="1.749" x="14.909" y="19.867" color-interpolation-filters="sRGB" filterUnits="userSpaceOnUse"><feFlood flood-opacity="0" result="BackgroundImageFix"/><feBlend in="SourceGraphic" in2="BackgroundImageFix" result="shape"/><feGaussianBlur result="effect1_foregroundBlur_6893_5267" stdDeviation=".3"/></filter><filter id="IconifyId18fc4c3fe832ed53e8962" width="6.005" height="4.013" x="23.685" y="19.98" color-interpolation-filters="sRGB" filterUnits="userSpaceOnUse"><feFlood flood-opacity="0" result="BackgroundImageFix"/><feBlend in="SourceGraphic" in2="BackgroundImageFix" result="shape"/><feGaussianBlur result="effect1_foregroundBlur_6893_5267" stdDeviation=".25"/></filter><filter id="IconifyId18fc4c3fe832ed53e8963" width="4.127" height="3.566" x="23.685" y="23.823" color-interpolation-filters="sRGB" filterUnits="userSpaceOnUse"><feFlood flood-opacity="0" result="BackgroundImageFix"/><feBlend in="SourceGraphic" in2="BackgroundImageFix" result="shape"/><feGaussianBlur result="effect1_foregroundBlur_6893_5267" stdDeviation=".25"/></filter><filter id="IconifyId18fc4c3fe832ed53e8964" width="5.105" height="3.113" x="24.916" y="20.248" color-interpolation-filters="sRGB" filterUnits="userSpaceOnUse"><feFlood flood-opacity="0" result="BackgroundImageFix"/><feBlend in="SourceGraphic" in2="BackgroundImageFix" result="shape"/><feGaussianBlur result="effect1_foregroundBlur_6893_5267" stdDeviation=".25"/></filter><filter id="IconifyId18fc4c3fe832ed53e8965" width="1.363" height="1.337" x="28.924" y="19.912" color-interpolation-filters="sRGB" filterUnits="userSpaceOnUse"><feFlood flood-opacity="0" result="BackgroundImageFix"/><feBlend in="SourceGraphic" in2="BackgroundImageFix" result="shape"/><feGaussianBlur result="effect1_foregroundBlur_6893_5267" stdDeviation=".25"/></filter><filter id="IconifyId18fc4c3fe832ed53e8966" width="5.102" height="3.119" x="24.848" y="23.899" color-interpolation-filters="sRGB" filterUnits="userSpaceOnUse"><feFlood flood-opacity="0" result="BackgroundImageFix"/><feBlend in="SourceGraphic" in2="BackgroundImageFix" result="shape"/><feGaussianBlur result="effect1_foregroundBlur_6893_5267" stdDeviation=".25"/></filter><filter id="IconifyId18fc4c3fe832ed53e8967" width="1.36" height="1.34" x="28.86" y="25.698" color-interpolation-filters="sRGB" filterUnits="userSpaceOnUse"><feFlood flood-opacity="0" result="BackgroundImageFix"/><feBlend in="SourceGraphic" in2="BackgroundImageFix" result="shape"/><feGaussianBlur result="effect1_foregroundBlur_6893_5267" stdDeviation=".25"/></filter><filter id="IconifyId18fc4c3fe832ed53e8968" width="5.102" height="3.119" x="2.142" y="23.911" color-interpolation-filters="sRGB" filterUnits="userSpaceOnUse"><feFlood flood-opacity="0" result="BackgroundImageFix"/><feBlend in="SourceGraphic" in2="BackgroundImageFix" result="shape"/><feGaussianBlur result="effect1_foregroundBlur_6893_5267" stdDeviation=".25"/></filter><filter id="IconifyId18fc4c3fe832ed53e8969" width="1.364" height="1.336" x="5.964" y="23.837" color-interpolation-filters="sRGB" filterUnits="userSpaceOnUse"><feFlood flood-opacity="0" result="BackgroundImageFix"/><feBlend in="SourceGraphic" in2="BackgroundImageFix" result="shape"/><feGaussianBlur result="effect1_foregroundBlur_6893_5267" stdDeviation=".25"/></filter><filter id="IconifyId18fc4c3fe832ed53e8970" width="5.114" height="3.094" x="2.21" y="20.055" color-interpolation-filters="sRGB" filterUnits="userSpaceOnUse"><feFlood flood-opacity="0" result="BackgroundImageFix"/><feBlend in="SourceGraphic" in2="BackgroundImageFix" result="shape"/><feGaussianBlur result="effect1_foregroundBlur_6893_5267" stdDeviation=".25"/></filter><filter id="IconifyId18fc4c3fe832ed53e8971" width="1.336" height="1.364" x="6.083" y="21.822" color-interpolation-filters="sRGB" filterUnits="userSpaceOnUse"><feFlood flood-opacity="0" result="BackgroundImageFix"/><feBlend in="SourceGraphic" in2="BackgroundImageFix" result="shape"/><feGaussianBlur result="effect1_foregroundBlur_6893_5267" stdDeviation=".25"/></filter><filter id="IconifyId18fc4c3fe832ed53e8972" width="12.585" height="22.186" x="18.102" y="6.102" color-interpolation-filters="sRGB" filterUnits="userSpaceOnUse"><feFlood flood-opacity="0" result="BackgroundImageFix"/><feBlend in="SourceGraphic" in2="BackgroundImageFix" result="shape"/><feGaussianBlur result="effect1_foregroundBlur_6893_5267" stdDeviation="2"/></filter><filter id="IconifyId18fc4c3fe832ed53e8973" width="4.825" height="7.138" x="22.409" y="6.767" color-interpolation-filters="sRGB" filterUnits="userSpaceOnUse"><feFlood flood-opacity="0" result="BackgroundImageFix"/><feBlend in="SourceGraphic" in2="BackgroundImageFix" result="shape"/><feGaussianBlur result="effect1_foregroundBlur_6893_5267" stdDeviation=".3"/></filter><filter id="IconifyId18fc4c3fe832ed53e8974" width="4.531" height="4.734" x="22.727" y="9.289" color-interpolation-filters="sRGB" filterUnits="userSpaceOnUse"><feFlood flood-opacity="0" result="BackgroundImageFix"/><feBlend in="SourceGraphic" in2="BackgroundImageFix" result="shape"/><feGaussianBlur result="effect1_foregroundBlur_6893_5267" stdDeviation=".375"/></filter><filter id="IconifyId18fc4c3fe832ed53e8975" width="4.469" height="6.908" x="4.723" y="6.999" color-interpolation-filters="sRGB" filterUnits="userSpaceOnUse"><feFlood flood-opacity="0" result="BackgroundImageFix"/><feBlend in="SourceGraphic" in2="BackgroundImageFix" result="shape"/><feGaussianBlur result="effect1_foregroundBlur_6893_5267" stdDeviation=".25"/></filter><filter id="IconifyId18fc4c3fe832ed53e8976" width="1.15" height="6.338" x="4.648" y="7.152" color-interpolation-filters="sRGB" filterUnits="userSpaceOnUse"><feFlood flood-opacity="0" result="BackgroundImageFix"/><feBlend in="SourceGraphic" in2="BackgroundImageFix" result="shape"/><feGaussianBlur result="effect1_foregroundBlur_6893_5267" stdDeviation=".25"/></filter><filter id="IconifyId18fc4c3fe832ed53e8977" width="4.83" height="3.345" x="9.273" y="17.468" color-interpolation-filters="sRGB" filterUnits="userSpaceOnUse"><feFlood flood-opacity="0" result="BackgroundImageFix"/><feBlend in="SourceGraphic" in2="BackgroundImageFix" result="shape"/><feGaussianBlur result="effect1_foregroundBlur_6893_5267" stdDeviation=".2"/></filter><filter id="IconifyId18fc4c3fe832ed53e8978" width="4.83" height="3.345" x="17.241" y="17.468" color-interpolation-filters="sRGB" filterUnits="userSpaceOnUse"><feFlood flood-opacity="0" result="BackgroundImageFix"/><feBlend in="SourceGraphic" in2="BackgroundImageFix" result="shape"/><feGaussianBlur result="effect1_foregroundBlur_6893_5267" stdDeviation=".2"/></filter><filter id="IconifyId18fc4c3fe832ed53e8979" width="1.128" height="1.253" x="20.975" y="18.741" color-interpolation-filters="sRGB" filterUnits="userSpaceOnUse"><feFlood flood-opacity="0" result="BackgroundImageFix"/><feBlend in="SourceGraphic" in2="BackgroundImageFix" result="shape"/><feGaussianBlur result="effect1_foregroundBlur_6893_5267" stdDeviation=".2"/></filter><filter id="IconifyId18fc4c3fe832ed53e8980" width="1.128" height="1.253" x="13.081" y="18.741" color-interpolation-filters="sRGB" filterUnits="userSpaceOnUse"><feFlood flood-opacity="0" result="BackgroundImageFix"/><feBlend in="SourceGraphic" in2="BackgroundImageFix" result="shape"/><feGaussianBlur result="effect1_foregroundBlur_6893_5267" stdDeviation=".2"/></filter><linearGradient id="IconifyId18fc4c3fe832ed53e8981" x1="7.907" x2="7.907" y1="1.35" y2="30.99" gradientUnits="userSpaceOnUse"><stop offset=".288" stop-color="#F2CC26"/><stop offset=".762" stop-color="#E99E20"/><stop offset=".993" stop-color="#E3821D"/><stop offset="1" stop-color="#E3801D"/></linearGradient><linearGradient id="IconifyId18fc4c3fe832ed53e8982" x1="8.831" x2="1.17" y1="12.033" y2="12.033" gradientUnits="userSpaceOnUse"><stop stop-color="#E99E20" stop-opacity="0"/><stop offset=".993" stop-color="#E3821D"/><stop offset="1" stop-color="#E3801D"/></linearGradient><linearGradient id="IconifyId18fc4c3fe832ed53e8983" x1="26.791" x2="30.245" y1="12.033" y2="12.033" gradientUnits="userSpaceOnUse"><stop stop-color="#E99E20" stop-opacity="0"/><stop offset=".993" stop-color="#E3821D"/><stop offset="1" stop-color="#E3801D"/></linearGradient><linearGradient id="IconifyId18fc4c3fe832ed53e8984" x1="16.001" x2="16" y1="-1.595" y2="30.99" gradientUnits="userSpaceOnUse"><stop offset=".771" stop-color="#F59639" stop-opacity="0"/><stop offset="1" stop-color="#FF63C4"/></linearGradient><linearGradient id="IconifyId18fc4c3fe832ed53e8985" x1="16" x2="16" y1="11.252" y2="32.475" gradientUnits="userSpaceOnUse"><stop offset=".854" stop-color="#fff" stop-opacity="0"/><stop offset=".985" stop-color="#fff"/></linearGradient><linearGradient id="IconifyId18fc4c3fe832ed53e8986" x1="21.908" x2="28.165" y1="6.852" y2="13.695" gradientUnits="userSpaceOnUse"><stop stop-color="#FFA720"/><stop offset="1" stop-color="#FFA720" stop-opacity="0"/></linearGradient><linearGradient id="IconifyId18fc4c3fe832ed53e8987" x1="10.602" x2="4.743" y1="10.617" y2="10.07" gradientUnits="userSpaceOnUse"><stop offset=".437" stop-color="#ED8C1B"/><stop offset="1" stop-color="#FFB03A"/></linearGradient><linearGradient id="IconifyId18fc4c3fe832ed53e8988" x1="27.04" x2="26.444" y1="4.961" y2="7.302" gradientUnits="userSpaceOnUse"><stop offset=".286" stop-color="#FFE792"/><stop offset="1" stop-color="#FFDD65" stop-opacity="0"/></linearGradient><linearGradient id="IconifyId18fc4c3fe832ed53e8989" x1="15.751" x2="15.079" y1="22.351" y2="23.445" gradientUnits="userSpaceOnUse"><stop stop-color="#E3900E"/><stop offset="1" stop-color="#EA9D26" stop-opacity="0"/></linearGradient><linearGradient id="IconifyId18fc4c3fe832ed53e8990" x1="17.204" x2="15.68" y1="20.741" y2="20.741" gradientUnits="userSpaceOnUse"><stop stop-color="#fff" stop-opacity=".9"/><stop offset="1" stop-color="#fff" stop-opacity="0"/></linearGradient><linearGradient id="IconifyId18fc4c3fe832ed53e8991" x1="24.29" x2="28.024" y1="23.236" y2="21.32" gradientUnits="userSpaceOnUse"><stop stop-color="#E88105"/><stop offset="1" stop-color="#E37D02" stop-opacity="0"/></linearGradient><linearGradient id="IconifyId18fc4c3fe832ed53e8992" x1="24.29" x2="28.024" y1="24.58" y2="26.495" gradientUnits="userSpaceOnUse"><stop offset=".286" stop-color="#DE7D07"/><stop offset=".818" stop-color="#E37D02" stop-opacity="0"/></linearGradient><linearGradient id="IconifyId18fc4c3fe832ed53e8993" x1="25.29" x2="29.371" y1="22.945" y2="21.008" gradientUnits="userSpaceOnUse"><stop offset=".156" stop-color="#D64A38"/><stop offset="1" stop-color="#FB7425"/></linearGradient><linearGradient id="IconifyId18fc4c3fe832ed53e8994" x1="25.074" x2="29.146" y1="24.71" y2="26.665" gradientUnits="userSpaceOnUse"><stop offset=".156" stop-color="#D64A38"/><stop offset="1" stop-color="#FB7425"/></linearGradient><linearGradient id="IconifyId18fc4c3fe832ed53e8995" x1="7.018" x2="2.945" y1="24.721" y2="26.677" gradientUnits="userSpaceOnUse"><stop offset=".156" stop-color="#D64A38"/><stop offset="1" stop-color="#FB7425"/></linearGradient><linearGradient id="IconifyId18fc4c3fe832ed53e8996" x1="6.818" x2="2.728" y1="22.929" y2="21.012" gradientUnits="userSpaceOnUse"><stop offset=".156" stop-color="#D64A38"/><stop offset="1" stop-color="#FB7425"/></linearGradient><linearGradient id="IconifyId18fc4c3fe832ed53e8997" x1="16.047" x2="16.047" y1="27.523" y2="23.1" gradientUnits="userSpaceOnUse"><stop stop-color="#E61E27"/><stop offset="1" stop-color="#672A7A"/></linearGradient><linearGradient id="IconifyId18fc4c3fe832ed53e8998" x1="23.352" x2="22.956" y1="10.838" y2="22.889" gradientUnits="userSpaceOnUse"><stop offset=".548" stop-color="#FFDD65"/><stop offset="1" stop-color="#FFDD65" stop-opacity="0"/></linearGradient><linearGradient id="IconifyId18fc4c3fe832ed53e8999" x1="26.54" x2="25.29" y1="15.508" y2="12.039" gradientUnits="userSpaceOnUse"><stop stop-color="#EF8A47"/><stop offset="1" stop-color="#EF8A47" stop-opacity="0"/></linearGradient><linearGradient id="IconifyId18fc4c3fe832ed53e9000" x1="25.055" x2="25.055" y1="10.477" y2="12.82" gradientUnits="userSpaceOnUse"><stop offset=".432" stop-color="#FFE7A3"/><stop offset="1" stop-color="#FFDF83" stop-opacity="0"/></linearGradient><linearGradient id="IconifyId18fc4c3fe832ed53e9001" x1="14.953" x2="15.263" y1="19.731" y2="22.947" gradientUnits="userSpaceOnUse"><stop stop-color="#EC9611"/><stop offset="1" stop-color="#EA9D26" stop-opacity="0"/></linearGradient><linearGradient id="IconifyId18fc4c3fe832ed53e9002" x1="22.922" x2="23.232" y1="19.731" y2="22.947" gradientUnits="userSpaceOnUse"><stop stop-color="#EC9611"/><stop offset="1" stop-color="#EA9D26" stop-opacity="0"/></linearGradient><linearGradient id="IconifyId18fc4c3fe832ed53e9003" x1="9.984" x2="11.75" y1="20.141" y2="18.859" gradientUnits="userSpaceOnUse"><stop stop-color="#271B27"/><stop offset="1" stop-color="#483637" stop-opacity="0"/></linearGradient><linearGradient id="IconifyId18fc4c3fe832ed53e9004" x1="17.953" x2="19.719" y1="20.141" y2="18.859" gradientUnits="userSpaceOnUse"><stop stop-color="#271B27"/><stop offset="1" stop-color="#483637" stop-opacity="0"/></linearGradient><radialGradient id="IconifyId18fc4c3fe832ed53e9005" cx="0" cy="0" r="1" gradientTransform="matrix(3.04569 4.424 -8.78922 6.0509 22.175 4.477)" gradientUnits="userSpaceOnUse"><stop stop-color="#FFA720"/><stop offset=".921" stop-color="#FFA720" stop-opacity="0"/></radialGradient><radialGradient id="IconifyId18fc4c3fe832ed53e9006" cx="0" cy="0" r="1" gradientTransform="matrix(-1.89063 -.95312 .95876 -1.9018 16.446 21.18)" gradientUnits="userSpaceOnUse"><stop stop-color="#EA088B"/><stop offset="1" stop-color="#E61E27"/></radialGradient><radialGradient id="IconifyId18fc4c3fe832ed53e9007" cx="0" cy="0" r="1" gradientTransform="matrix(4.40625 6.46875 -7.7559 5.283 22.868 7.773)" gradientUnits="userSpaceOnUse"><stop stop-color="#FFDF70"/><stop offset="1" stop-color="#FFDF70" stop-opacity="0"/></radialGradient><radialGradient id="IconifyId18fc4c3fe832ed53e9008" cx="0" cy="0" r="1" gradientTransform="matrix(-.10987 -5.75866 5.75788 -.10985 12.016 19.589)" gradientUnits="userSpaceOnUse"><stop offset=".167" stop-color="#482641"/><stop offset=".276" stop-color="#594253"/><stop offset=".401" stop-color="#483637"/></radialGradient><radialGradient id="IconifyId18fc4c3fe832ed53e9009" cx="0" cy="0" r="1" gradientTransform="matrix(-.10987 -5.75866 5.75788 -.10985 19.985 19.587)" gradientUnits="userSpaceOnUse"><stop offset=".167" stop-color="#482641"/><stop offset=".276" stop-color="#594253"/><stop offset=".401" stop-color="#483637"/></radialGradient></defs></g></svg>