<svg version="1.1" id="Layer_1" xmlns="http://www.w3.org/2000/svg" xmlns:xlink="http://www.w3.org/1999/xlink" x="0px" y="0px"
	 width="100%" viewBox="0 0 281 292" enable-background="new 0 0 281 292" xml:space="preserve">
<path fill="#FEFEFE" opacity="1.000000" stroke="none" 
	d="
M24.000000,293.000000 
	C16.336554,293.000000 8.673108,293.000000 1.007247,293.000000 
	C1.004831,195.710770 1.004831,98.421555 1.004831,1.066165 
	C94.583168,1.066165 188.166397,1.066165 281.874817,1.066165 
	C281.874817,98.333244 281.874817,195.666595 281.874023,292.999969 
	C230.894608,293.000000 179.915970,293.000000 128.456451,292.708374 
	C127.959625,292.222839 127.943680,292.028931 128.261383,291.734344 
	C136.934525,288.321228 140.971817,282.213623 141.032196,273.289490 
	C148.772263,274.242218 156.019806,275.539246 163.314590,275.912079 
	C177.589645,276.641602 185.778625,268.549438 185.916046,254.153214 
	C186.031174,242.092422 181.675629,231.365585 175.920914,221.067230 
	C175.240265,219.849167 174.631638,218.590881 174.392075,218.128311 
	C183.636078,216.622452 192.937698,216.220825 201.493683,213.486252 
	C220.468704,207.421646 231.572693,193.040604 238.932602,175.132492 
	C246.286148,157.239853 250.627457,138.949982 246.976639,119.596588 
	C246.023071,114.541588 247.064896,110.995888 250.188049,106.996185 
	C258.408386,96.468735 265.860352,85.403885 268.367126,71.851707 
	C270.419739,60.754642 265.380096,52.844242 254.403534,51.096985 
	C249.206223,50.269676 243.657608,49.871449 238.525940,50.762852 
	C226.089584,52.923126 213.820740,56.033703 201.443512,58.561123 
	C199.184052,59.022507 196.628036,58.962894 194.383987,58.420059 
	C177.742218,54.394394 161.130798,50.239662 144.550552,45.967522 
	C142.438522,45.423332 140.259766,44.308174 138.629929,42.870350 
	C132.513123,37.474194 126.834305,31.566500 120.572830,26.353165 
	C112.506729,19.637281 104.153198,13.193732 93.632278,10.598754 
	C85.362381,8.558990 78.681610,11.564074 75.012962,19.232691 
	C73.663040,22.054468 72.607414,25.118893 72.024445,28.187920 
	C69.621979,40.835506 71.180878,53.387947 73.211662,65.931175 
	C73.493515,67.672066 73.387558,70.142067 72.364105,71.327164 
	C58.846489,86.979836 52.751480,105.507561 50.887379,125.707512 
	C50.613110,128.679581 49.615982,130.357803 46.559860,131.446411 
	C39.369473,134.007706 34.839737,138.919830 34.533802,147.191101 
	C33.442345,147.332474 32.778996,147.394318 32.114880,147.404175 
	C17.532265,147.620773 11.855017,153.283997 11.851738,167.680649 
	C11.843706,202.943985 11.973897,238.208023 11.768182,273.470154 
	C11.714256,282.713715 15.619558,288.624268 24.061628,292.101074 
	C24.021055,292.599976 24.010527,292.799988 24.000000,293.000000 
z"/>
<path fill="#E4F1D8" opacity="1.000000" stroke="none" 
	d="
M127.927734,291.834991 
	C127.943680,292.028931 127.959625,292.222839 127.987785,292.708374 
	C93.645775,293.000000 59.291542,293.000000 24.468658,293.000000 
	C24.010527,292.799988 24.021055,292.599976 24.522194,292.093994 
	C59.317780,291.803680 93.622757,291.819336 127.927734,291.834991 
z"/>
<path fill="#71848D" opacity="1.000000" stroke="none" 
	d="
M34.961555,147.087387 
	C34.839737,138.919830 39.369473,134.007706 46.559860,131.446411 
	C49.615982,130.357803 50.613110,128.679581 50.887379,125.707512 
	C52.751480,105.507561 58.846489,86.979836 72.364105,71.327164 
	C73.387558,70.142067 73.493515,67.672066 73.211662,65.931175 
	C71.180878,53.387947 69.621979,40.835506 72.024445,28.187920 
	C72.607414,25.118893 73.663040,22.054468 75.012962,19.232691 
	C78.681610,11.564074 85.362381,8.558990 93.632278,10.598754 
	C104.153198,13.193732 112.506729,19.637281 120.572830,26.353165 
	C126.834305,31.566500 132.513123,37.474194 138.629929,42.870350 
	C140.259766,44.308174 142.438522,45.423332 144.550552,45.967522 
	C161.130798,50.239662 177.742218,54.394394 194.383987,58.420059 
	C196.628036,58.962894 199.184052,59.022507 201.443512,58.561123 
	C213.820740,56.033703 226.089584,52.923126 238.525940,50.762852 
	C243.657608,49.871449 249.206223,50.269676 254.403534,51.096985 
	C265.380096,52.844242 270.419739,60.754642 268.367126,71.851707 
	C265.860352,85.403885 258.408386,96.468735 250.188049,106.996185 
	C247.064896,110.995888 246.023071,114.541588 246.976639,119.596588 
	C250.627457,138.949982 246.286148,157.239853 238.932602,175.132492 
	C231.572693,193.040604 220.468704,207.421646 201.493683,213.486252 
	C192.937698,216.220825 183.636078,216.622452 174.392075,218.128311 
	C174.631638,218.590881 175.240265,219.849167 175.920914,221.067230 
	C181.675629,231.365585 186.031174,242.092422 185.916046,254.153214 
	C185.778625,268.549438 177.589645,276.641602 163.314590,275.912079 
	C156.019806,275.539246 148.772263,274.242218 140.765427,273.163757 
	C138.094162,272.635925 136.160828,272.307220 133.878693,271.822144 
	C124.144310,268.710236 114.885170,265.545929 108.884575,256.455505 
	C106.069862,250.553848 106.921791,244.869904 108.385300,238.949692 
	C114.329224,228.427612 123.640442,227.431992 134.283905,228.956909 
	C136.657516,229.356613 138.653839,229.688354 140.943085,230.268036 
	C149.719528,233.599228 157.953079,237.157730 164.288635,243.881577 
	C165.128159,244.772537 165.518158,246.506332 165.362015,247.755493 
	C165.271545,248.479218 163.483337,249.690933 162.794449,249.496277 
	C161.283981,249.069504 159.907898,247.990250 158.615387,246.997208 
	C149.177597,239.746063 138.907059,234.760910 126.667374,234.905319 
	C119.557961,234.989212 115.990715,237.144287 114.194176,242.579971 
	C112.086189,248.957993 113.521072,254.882141 119.128624,258.332062 
	C123.728539,261.162048 128.833694,263.645477 134.047455,264.896759 
	C142.877808,267.016052 151.959305,268.114258 160.955505,269.511078 
	C175.029663,271.696259 180.576538,263.170380 179.742767,251.755981 
	C178.855240,239.605499 173.957245,228.619003 166.805298,218.767792 
	C165.791946,217.371994 163.749374,216.336288 161.999985,215.937485 
	C157.486084,214.908447 152.822495,214.524933 148.325317,213.441101 
	C147.115509,213.149536 146.287079,211.275345 145.283585,210.127655 
	C146.637115,209.189209 148.057312,207.359222 149.333527,207.454666 
	C158.745834,208.158478 168.133087,209.212250 177.521072,210.222473 
	C188.427032,211.396027 198.511810,209.068634 208.043411,203.668182 
	C221.258102,196.180969 228.385040,184.144745 233.853760,170.590378 
	C243.541565,146.578964 246.068314,122.774902 233.170486,98.994675 
	C232.443909,97.655037 233.021469,95.608055 233.394012,93.815384 
	C238.200043,92.266052 238.308975,97.308601 240.940109,98.821838 
	C241.647507,101.230087 242.389496,103.288231 243.327164,105.889153 
	C251.783157,94.755402 259.422058,84.166115 262.212006,70.918007 
	C263.746948,63.629189 259.904022,57.661755 252.671448,57.058258 
	C237.100540,55.759010 222.143875,58.866562 206.560593,63.923576 
	C210.753250,66.941139 214.321548,69.509315 218.088730,72.384491 
	C218.351746,74.100731 218.415848,75.509995 218.166229,76.984344 
	C216.078018,76.685913 214.128326,76.672066 212.564301,75.888451 
	C208.941513,74.073334 205.505280,71.885895 201.831940,69.556061 
	C194.780746,66.508308 187.891037,63.753922 180.826981,60.785210 
	C180.132034,60.434456 179.611420,60.298019 178.694977,60.063675 
	C171.213654,58.293259 164.128143,56.620750 156.869064,54.734871 
	C156.169464,54.418274 155.643417,54.315044 154.682892,54.138397 
	C146.839447,53.367111 139.430511,52.669231 131.571930,51.951881 
	C128.328888,52.207592 125.518166,52.809704 122.747093,52.662987 
	C120.147186,52.525330 117.589211,51.595791 115.065094,50.674004 
	C116.051971,49.194031 116.986534,48.054760 118.333618,46.904411 
	C122.675491,46.281467 126.604843,45.669601 131.512833,44.905346 
	C120.217827,33.627312 109.425514,23.822762 95.736572,17.884161 
	C87.272804,14.212370 81.290863,16.390478 79.295807,25.279976 
	C77.542587,33.091927 77.539406,41.370934 77.441231,49.451904 
	C77.383179,54.229656 78.641624,59.023396 79.450195,64.830780 
	C81.950493,62.492886 83.494789,61.048893 85.374046,59.578354 
	C88.435852,58.777134 90.931396,54.615364 94.019150,59.355408 
	C93.021904,61.127613 92.311928,62.990955 90.961937,63.859436 
	C78.232780,72.048401 69.565086,83.513321 63.873653,97.312073 
	C59.893623,106.961563 57.978016,117.115219 57.106415,128.112457 
	C65.155685,127.326279 71.182343,130.909500 76.929047,135.573868 
	C77.320122,137.301300 77.702583,138.674179 78.064102,140.465851 
	C78.344978,143.015305 78.646782,145.145935 78.949478,147.648193 
	C78.602516,149.977005 78.254662,151.934189 77.650620,154.111420 
	C73.941254,158.050552 71.108376,162.828232 66.915573,165.285110 
	C55.530563,171.956451 42.844200,166.942825 35.992615,153.578796 
	C35.644840,151.154419 35.303196,149.120895 34.961555,147.087387 
M56.039177,135.125748 
	C53.485100,135.858780 50.858177,136.404663 48.392403,137.364517 
	C43.534523,139.255585 40.597095,143.537476 41.087643,147.585648 
	C42.377460,158.229660 52.983749,164.545898 62.877502,160.561905 
	C69.457954,157.912109 73.549553,149.667618 71.926102,142.329178 
	C70.757225,137.045517 66.744461,134.855652 58.401894,134.953659 
	C57.902576,134.959549 57.403622,134.995911 56.039177,135.125748 
z"/>
<path fill="#85B665" opacity="1.000000" stroke="none" 
	d="
M140.650162,230.020096 
	C138.653839,229.688354 136.657516,229.356613 134.350128,228.502167 
	C134.068039,214.314972 133.975784,200.648483 134.203522,186.987305 
	C134.267670,183.138306 132.851898,182.202362 129.254593,182.212799 
	C93.924995,182.315247 58.594738,182.337234 23.265432,182.193451 
	C19.117910,182.176575 17.892147,183.384338 17.917339,187.552887 
	C18.088547,215.882492 17.996122,244.213608 18.020704,272.544220 
	C18.029512,282.695953 21.286932,285.851227 31.646193,285.854889 
	C60.976723,285.865295 90.307251,285.867615 119.637779,285.864410 
	C131.096298,285.863159 133.819901,283.259949 134.227493,271.978485 
	C136.160828,272.307220 138.094162,272.635925 140.294266,273.090332 
	C140.971817,282.213623 136.934525,288.321228 128.261383,291.734344 
	C93.622757,291.819336 59.317780,291.803680 24.552238,291.795105 
	C15.619558,288.624268 11.714256,282.713715 11.768182,273.470154 
	C11.973897,238.208023 11.843706,202.943985 11.851738,167.680649 
	C11.855017,153.283997 17.532265,147.620773 32.114880,147.404175 
	C32.778996,147.394318 33.442345,147.332474 34.533802,147.191101 
	C35.303196,149.120895 35.644840,151.154419 35.536446,153.586182 
	C30.797043,154.747391 26.037468,154.590454 22.327433,156.486832 
	C16.620255,159.404022 18.310966,165.613174 17.921875,170.831451 
	C17.605455,175.075058 19.183304,176.111496 23.264030,176.093460 
	C57.025051,175.944122 90.787025,176.007935 124.548706,176.011536 
	C134.027039,176.012558 134.027023,176.019104 134.004547,166.545502 
	C133.982971,157.448730 130.503128,154.010544 121.311752,153.991150 
	C106.843430,153.960632 92.375122,153.924911 77.906807,153.891388 
	C78.254662,151.934189 78.602516,149.977005 79.421043,147.592300 
	C94.381783,147.151001 108.872154,147.075531 123.361809,147.146317 
	C132.172958,147.189377 140.681473,154.328400 140.764862,162.586517 
	C140.991821,185.061707 140.722687,207.541885 140.650162,230.020096 
z"/>
<path fill="#B0B8C3" opacity="1.000000" stroke="none" 
	d="
M140.943085,230.268036 
	C140.722687,207.541885 140.991821,185.061707 140.764862,162.586517 
	C140.681473,154.328400 132.172958,147.189377 123.361809,147.146317 
	C108.872154,147.075531 94.381783,147.151001 79.420151,147.220673 
	C78.646782,145.145935 78.344978,143.015305 78.435089,140.501358 
	C83.258415,141.365189 87.638489,142.893967 92.147415,143.715729 
	C93.861946,144.028214 95.872643,142.715652 97.748352,142.143723 
	C96.395233,140.792328 95.274239,138.832520 93.642982,138.210175 
	C89.665977,136.692917 85.483032,135.659149 81.316849,134.726135 
	C79.956429,134.421448 78.391708,135.028976 76.920425,135.219299 
	C71.182343,130.909500 65.155685,127.326279 57.106415,128.112457 
	C57.978016,117.115219 59.893623,106.961563 63.873653,97.312073 
	C69.565086,83.513321 78.232780,72.048401 90.961937,63.859436 
	C92.311928,62.990955 93.021904,61.127613 94.331215,59.197113 
	C101.426682,56.117180 108.219734,53.565945 115.012779,51.014709 
	C117.589211,51.595791 120.147186,52.525330 122.747093,52.662987 
	C125.518166,52.809704 128.328888,52.207592 131.566498,52.394779 
	C131.812790,54.655544 131.370148,56.466484 131.461533,58.250057 
	C131.771027,64.290878 131.540451,70.492584 132.901093,76.308846 
	C134.260574,82.120171 138.579788,82.783325 142.876892,78.617599 
	C149.788025,71.917793 153.298981,63.481792 155.117386,54.211815 
	C155.643417,54.315044 156.169464,54.418274 156.845535,55.140663 
	C154.105270,65.748566 152.500931,75.882256 154.995682,86.152527 
	C155.588623,88.593468 157.752228,92.449097 159.257553,92.479530 
	C161.972626,92.534424 165.585632,90.881622 167.328888,88.730659 
	C174.029404,80.463058 177.521225,70.656448 179.090805,60.161579 
	C179.611420,60.298019 180.132034,60.434456 180.818024,61.200371 
	C180.659409,70.154488 179.789139,78.505905 180.195312,86.794762 
	C180.486755,92.742500 185.957260,95.025696 189.931671,91.517380 
	C196.473083,85.743126 200.236542,78.332771 201.993408,69.849411 
	C205.505280,71.885895 208.941513,74.073334 212.564301,75.888451 
	C214.128326,76.672066 216.078018,76.685913 218.446884,77.215416 
	C223.691513,82.884361 228.341766,88.387337 232.992035,93.890305 
	C233.021469,95.608055 232.443909,97.655037 233.170486,98.994675 
	C246.068314,122.774902 243.541565,146.578964 233.853760,170.590378 
	C228.385040,184.144745 221.258102,196.180969 208.043411,203.668182 
	C198.511810,209.068634 188.427032,211.396027 177.521072,210.222473 
	C168.133087,209.212250 158.745834,208.158478 149.333527,207.454666 
	C148.057312,207.359222 146.637115,209.189209 145.283585,210.127655 
	C146.287079,211.275345 147.115509,213.149536 148.325317,213.441101 
	C152.822495,214.524933 157.486084,214.908447 161.999985,215.937485 
	C163.749374,216.336288 165.791946,217.371994 166.805298,218.767792 
	C173.957245,228.619003 178.855240,239.605499 179.742767,251.755981 
	C180.576538,263.170380 175.029663,271.696259 160.955505,269.511078 
	C151.959305,268.114258 142.877808,267.016052 134.047455,264.896759 
	C128.833694,263.645477 123.728539,261.162048 119.128624,258.332062 
	C113.521072,254.882141 112.086189,248.957993 114.194176,242.579971 
	C115.990715,237.144287 119.557961,234.989212 126.667374,234.905319 
	C138.907059,234.760910 149.177597,239.746063 158.615387,246.997208 
	C159.907898,247.990250 161.283981,249.069504 162.794449,249.496277 
	C163.483337,249.690933 165.271545,248.479218 165.362015,247.755493 
	C165.518158,246.506332 165.128159,244.772537 164.288635,243.881577 
	C157.953079,237.157730 149.719528,233.599228 140.943085,230.268036 
M156.725281,133.901520 
	C153.091431,132.591461 149.508850,131.090103 145.790955,130.093552 
	C144.741196,129.812180 142.566223,130.723328 142.223190,131.601547 
	C141.829559,132.609238 142.494308,134.719879 143.410385,135.417130 
	C145.909164,137.319016 144.811707,138.748520 143.310654,140.301392 
	C139.867065,143.863861 135.459030,142.453583 133.109497,137.433701 
	C132.372192,135.858383 130.466904,134.829742 129.096222,133.550873 
	C128.442902,135.555176 127.026077,137.663101 127.281403,139.544067 
	C128.007050,144.889954 135.168411,149.877502 140.386032,148.555206 
	C144.222198,147.583008 146.761322,148.326859 149.781036,150.893158 
	C154.686249,155.061844 164.242462,153.160828 166.855057,147.824371 
	C167.469101,146.570114 166.674149,144.626053 166.527420,142.999329 
	C165.017334,143.335327 163.498535,143.636841 161.999069,144.014984 
	C159.364655,144.679306 156.512070,146.387314 154.168915,145.846619 
	C150.727219,145.052429 150.350281,141.768463 152.268539,139.227493 
	C153.806854,137.708893 155.345184,136.190308 156.725281,133.901520 
M115.628983,129.031509 
	C117.450584,129.382141 119.272179,129.732788 121.093781,130.083420 
	C120.827324,128.294022 121.103210,126.149773 120.203514,124.774681 
	C115.513969,117.607193 104.061661,114.968063 96.652092,119.396919 
	C95.380852,120.156754 95.033463,122.462189 94.259293,124.053635 
	C95.976402,124.392357 97.955139,125.454597 99.365379,124.944656 
	C105.498047,122.727135 110.767532,123.267372 115.628983,129.031509 
M199.140747,151.421371 
	C202.964493,152.178070 204.331055,150.410263 202.928146,147.047745 
	C199.595261,139.059448 184.870117,134.964157 177.806519,140.084106 
	C176.693481,140.890884 176.531723,143.010101 175.930145,144.522491 
	C177.378372,144.933701 179.164978,146.104843 180.220749,145.634705 
	C187.978455,142.180222 193.726410,144.867844 199.140747,151.421371 
M193.630280,163.078339 
	C192.768265,164.428360 191.452209,165.713928 191.247391,167.157211 
	C191.153549,167.818466 193.129623,169.198990 194.365814,169.546967 
	C198.802185,170.795792 203.286560,171.997421 207.833984,172.656952 
	C209.293701,172.868668 211.004715,171.347885 212.600754,170.619736 
	C211.494720,169.421356 210.599167,167.587494 209.244781,167.138931 
	C204.394730,165.532578 199.389252,164.395447 193.630280,163.078339 
M189.852570,174.181015 
	C187.309937,175.581161 187.610184,177.437057 189.497513,178.926529 
	C193.265106,181.899933 197.145355,184.757370 201.187927,187.335190 
	C202.105179,187.920090 203.874252,187.169144 205.251251,187.033066 
	C205.035461,185.719727 205.290833,183.749084 204.526413,183.201111 
	C200.012497,179.965454 195.261505,177.060516 189.852570,174.181015 
M180.709061,118.988037 
	C178.822998,119.590233 175.766708,119.713257 175.284729,120.890366 
	C174.139694,123.686836 176.496429,124.767464 179.091064,125.176147 
	C180.864532,125.455482 182.625137,126.560295 184.316376,126.415924 
	C186.135468,126.260651 187.866821,125.077393 189.636459,124.342674 
	C188.512405,122.994820 187.604889,121.316940 186.200882,120.395775 
	C184.904633,119.545303 183.075912,119.506378 180.709061,118.988037 
M130.708221,106.499153 
	C128.140732,105.838547 125.597351,104.827820 122.996689,104.648636 
	C121.436600,104.541153 119.787033,105.732254 118.177673,106.339706 
	C119.259636,107.752342 120.061897,109.693947 121.491188,110.449753 
	C123.478981,111.500885 125.913696,111.872604 128.202255,112.123749 
	C129.467041,112.262543 131.660873,111.891510 131.947479,111.163963 
	C132.402344,110.009277 131.610733,108.363548 130.708221,106.499153 
z"/>
<path fill="#FCFDFA" opacity="1.000000" stroke="none" 
	d="
M133.878693,271.822144 
	C133.819901,283.259949 131.096298,285.863159 119.637779,285.864410 
	C90.307251,285.867615 60.976723,285.865295 31.646193,285.854889 
	C21.286932,285.851227 18.029512,282.695953 18.020704,272.544220 
	C17.996122,244.213608 18.088547,215.882492 17.917339,187.552887 
	C17.892147,183.384338 19.117910,182.176575 23.265432,182.193451 
	C58.594738,182.337234 93.924995,182.315247 129.254593,182.212799 
	C132.851898,182.202362 134.267670,183.138306 134.203522,186.987305 
	C133.975784,200.648483 134.068039,214.314972 133.972839,228.434204 
	C123.640442,227.431992 114.329224,228.427612 108.200493,238.638306 
	C102.720390,235.920166 101.654625,231.775513 101.815071,226.258057 
	C102.156342,214.522446 95.199142,205.124344 84.039223,201.225052 
	C81.289856,200.264420 78.562309,199.843246 78.717010,195.953812 
	C78.741531,195.337433 77.128410,194.190277 76.219109,194.132828 
	C75.302422,194.074921 73.480789,195.092529 73.495224,195.597778 
	C73.636917,200.555756 69.709564,200.523895 66.600441,201.849884 
	C63.894981,203.003708 61.261127,204.627945 59.038654,206.555191 
	C52.285225,212.411560 49.987335,220.129410 49.975346,228.883072 
	C49.972141,231.220428 49.186001,234.336365 47.577518,235.753616 
	C41.406147,241.191422 39.506542,245.630035 41.627464,252.276352 
	C43.594254,258.439667 48.805328,261.590057 56.828556,262.070984 
	C58.568325,262.175262 60.967079,263.434967 61.769081,264.880157 
	C64.840248,270.414337 68.904243,273.877533 75.501442,274.067993 
	C82.495911,274.269897 87.004692,270.746490 90.481537,265.093384 
	C91.308685,263.748505 93.096397,262.059448 94.393211,262.099915 
	C100.066879,262.277191 104.708572,260.148468 109.003922,256.806305 
	C114.885170,265.545929 124.144310,268.710236 133.878693,271.822144 
z"/>
<path fill="#9CD57D" opacity="1.000000" stroke="none" 
	d="
M77.650620,154.111420 
	C92.375122,153.924911 106.843430,153.960632 121.311752,153.991150 
	C130.503128,154.010544 133.982971,157.448730 134.004547,166.545502 
	C134.027023,176.019104 134.027039,176.012558 124.548706,176.011536 
	C90.787025,176.007935 57.025051,175.944122 23.264030,176.093460 
	C19.183304,176.111496 17.605455,175.075058 17.921875,170.831451 
	C18.310966,165.613174 16.620255,159.404022 22.327433,156.486832 
	C26.037468,154.590454 30.797043,154.747391 35.542580,153.977036 
	C42.844200,166.942825 55.530563,171.956451 66.915573,165.285110 
	C71.108376,162.828232 73.941254,158.050552 77.650620,154.111420 
M92.766167,168.461136 
	C94.563309,171.755096 97.181541,173.438431 100.980751,172.308517 
	C104.758179,171.185074 106.930969,167.347687 105.794067,163.657700 
	C104.545029,159.603714 101.356598,158.278778 97.538063,159.116379 
	C93.010124,160.109589 91.375603,163.250885 92.766167,168.461136 
M113.932846,166.296692 
	C114.674492,170.894196 117.664406,173.123169 121.989685,172.501099 
	C125.871979,171.942719 128.103012,168.997482 127.748489,164.949829 
	C127.408562,161.068695 124.857185,159.073898 120.997665,158.979767 
	C116.614899,158.872849 114.103218,160.949112 113.932846,166.296692 
z"/>
<path fill="#F3D184" opacity="1.000000" stroke="none" 
	d="
M108.884575,256.455505 
	C104.708572,260.148468 100.066879,262.277191 94.393211,262.099915 
	C93.096397,262.059448 91.308685,263.748505 90.481537,265.093384 
	C87.004692,270.746490 82.495911,274.269897 75.501442,274.067993 
	C68.904243,273.877533 64.840248,270.414337 61.769081,264.880157 
	C60.967079,263.434967 58.568325,262.175262 56.828556,262.070984 
	C48.805328,261.590057 43.594254,258.439667 41.627464,252.276352 
	C39.506542,245.630035 41.406147,241.191422 47.577518,235.753616 
	C49.186001,234.336365 49.972141,231.220428 49.975346,228.883072 
	C49.987335,220.129410 52.285225,212.411560 59.038654,206.555191 
	C61.261127,204.627945 63.894981,203.003708 66.600441,201.849884 
	C69.709564,200.523895 73.636917,200.555756 73.495224,195.597778 
	C73.480789,195.092529 75.302422,194.074921 76.219109,194.132828 
	C77.128410,194.190277 78.741531,195.337433 78.717010,195.953812 
	C78.562309,199.843246 81.289856,200.264420 84.039223,201.225052 
	C95.199142,205.124344 102.156342,214.522446 101.815071,226.258057 
	C101.654625,231.775513 102.720390,235.920166 107.945267,238.861206 
	C106.921791,244.869904 106.069862,250.553848 108.884575,256.455505 
M83.417610,207.730087 
	C70.824890,204.509918 62.108017,208.124741 58.085789,219.278381 
	C56.580154,223.453506 57.024506,228.425049 57.050102,233.030853 
	C57.072208,237.008835 56.665344,239.767380 52.062279,241.407059 
	C49.831367,242.201721 47.449963,246.146225 47.482281,248.634232 
	C47.510010,250.768631 50.677891,254.419525 52.802052,254.689941 
	C60.492916,255.668961 68.327362,255.601288 76.111008,255.744278 
	C82.204506,255.856216 88.310875,255.491455 94.396606,255.725861 
	C98.605522,255.887955 104.160683,253.234009 104.820747,249.756302 
	C105.705376,245.095444 103.471733,242.272186 99.016312,240.723618 
	C97.772331,240.291260 96.338440,238.657166 96.111801,237.376160 
	C95.452026,233.646988 94.983208,229.803833 95.120483,226.030151 
	C95.431465,217.481415 91.257599,211.917435 83.417610,207.730087 
M76.450935,261.970337 
	C73.776123,261.970337 71.101318,261.970337 67.864082,261.970337 
	C69.907982,266.718109 73.189270,268.228943 76.612976,267.764252 
	C79.255226,267.405579 81.654305,265.255554 84.161499,263.901978 
	C83.939781,263.258423 83.718063,262.614868 83.496346,261.971313 
	C81.454628,261.971313 79.412910,261.971313 76.450935,261.970337 
z"/>
<path fill="#B1B8C4" opacity="1.000000" stroke="none" 
	d="
M85.039078,59.604904 
	C83.494789,61.048893 81.950493,62.492886 79.450195,64.830780 
	C78.641624,59.023396 77.383179,54.229656 77.441231,49.451904 
	C77.539406,41.370934 77.542587,33.091927 79.295807,25.279976 
	C81.290863,16.390478 87.272804,14.212370 95.736572,17.884161 
	C109.425514,23.822762 120.217827,33.627312 131.512833,44.905346 
	C126.604843,45.669601 122.675491,46.281467 118.378525,46.538902 
	C115.369698,38.463234 109.899979,32.968208 103.523361,28.343199 
	C99.489326,25.417282 94.776306,24.521149 90.409157,27.415319 
	C85.891449,30.409279 86.668274,35.017567 87.597504,39.616344 
	C88.057671,41.893715 87.969040,44.385220 87.615417,46.701485 
	C86.954178,51.032780 85.918800,55.306957 85.039078,59.604904 
z"/>
<path fill="#B1B8C3" opacity="1.000000" stroke="none" 
	d="
M217.889832,72.077499 
	C214.321548,69.509315 210.753250,66.941139 206.560593,63.923576 
	C222.143875,58.866562 237.100540,55.759010 252.671448,57.058258 
	C259.904022,57.661755 263.746948,63.629189 262.212006,70.918007 
	C259.422058,84.166115 251.783157,94.755402 243.327164,105.889153 
	C242.389496,103.288231 241.647507,101.230087 241.057465,98.449905 
	C242.345963,95.021072 244.735565,92.127686 244.365875,89.645187 
	C243.519348,83.960365 246.815247,81.043480 249.931610,77.442635 
	C254.080429,72.648811 252.615219,66.800003 247.064163,63.661392 
	C241.629959,60.588860 236.191467,62.428631 231.225403,64.330475 
	C226.486313,66.145386 222.312271,69.435738 217.889832,72.077499 
z"/>
<path fill="#FCFCFC" opacity="1.000000" stroke="none" 
	d="
M218.088730,72.384483 
	C222.312271,69.435738 226.486313,66.145386 231.225403,64.330475 
	C236.191467,62.428631 241.629959,60.588860 247.064163,63.661392 
	C252.615219,66.800003 254.080429,72.648811 249.931610,77.442635 
	C246.815247,81.043480 243.519348,83.960365 244.365875,89.645187 
	C244.735565,92.127686 242.345963,95.021072 241.092041,98.099792 
	C238.308975,97.308601 238.200043,92.266052 233.394012,93.815384 
	C228.341766,88.387337 223.691513,82.884361 218.760590,77.150322 
	C218.415848,75.509995 218.351746,74.100731 218.088730,72.384483 
z"/>
<path fill="#FCFDFD" opacity="1.000000" stroke="none" 
	d="
M85.374046,59.578354 
	C85.918800,55.306957 86.954178,51.032780 87.615417,46.701485 
	C87.969040,44.385220 88.057671,41.893715 87.597504,39.616344 
	C86.668274,35.017567 85.891449,30.409279 90.409157,27.415319 
	C94.776306,24.521149 99.489326,25.417282 103.523361,28.343199 
	C109.899979,32.968208 115.369698,38.463234 117.965996,46.549980 
	C116.986534,48.054760 116.051971,49.194031 115.065094,50.674004 
	C108.219734,53.565945 101.426682,56.117180 94.321564,58.826714 
	C90.931396,54.615364 88.435852,58.777134 85.374046,59.578354 
z"/>
<path fill="#95A1B2" opacity="1.000000" stroke="none" 
	d="
M178.694977,60.063675 
	C177.521225,70.656448 174.029404,80.463058 167.328888,88.730659 
	C165.585632,90.881622 161.972626,92.534424 159.257553,92.479530 
	C157.752228,92.449097 155.588623,88.593468 154.995682,86.152527 
	C152.500931,75.882256 154.105270,65.748566 157.019104,55.354031 
	C164.128143,56.620750 171.213654,58.293259 178.694977,60.063675 
z"/>
<path fill="#B0B7C3" opacity="1.000000" stroke="none" 
	d="
M56.471836,135.071930 
	C57.403622,134.995911 57.902576,134.959549 58.401894,134.953659 
	C66.744461,134.855652 70.757225,137.045517 71.926102,142.329178 
	C73.549553,149.667618 69.457954,157.912109 62.877502,160.561905 
	C52.983749,164.545898 42.377460,158.229660 41.087643,147.585648 
	C40.597095,143.537476 43.534523,139.255585 48.392403,137.364517 
	C50.858177,136.404663 53.485100,135.858780 56.471836,135.071930 
z"/>
<path fill="#95A1B1" opacity="1.000000" stroke="none" 
	d="
M154.682892,54.138401 
	C153.298981,63.481792 149.788025,71.917793 142.876892,78.617599 
	C138.579788,82.783325 134.260574,82.120171 132.901093,76.308846 
	C131.540451,70.492584 131.771027,64.290878 131.461533,58.250057 
	C131.370148,56.466484 131.812790,54.655544 132.016129,52.414253 
	C139.430511,52.669231 146.839447,53.367111 154.682892,54.138401 
z"/>
<path fill="#95A1B2" opacity="1.000000" stroke="none" 
	d="
M201.831940,69.556061 
	C200.236542,78.332771 196.473083,85.743126 189.931671,91.517380 
	C185.957260,95.025696 180.486755,92.742500 180.195312,86.794762 
	C179.789139,78.505905 180.659409,70.154488 180.992355,61.414688 
	C187.891037,63.753922 194.780746,66.508308 201.831940,69.556061 
z"/>
<path fill="#96A2B2" opacity="1.000000" stroke="none" 
	d="
M76.929047,135.573868 
	C78.391708,135.028976 79.956429,134.421448 81.316849,134.726135 
	C85.483032,135.659149 89.665977,136.692917 93.642982,138.210175 
	C95.274239,138.832520 96.395233,140.792328 97.748352,142.143723 
	C95.872643,142.715652 93.861946,144.028214 92.147415,143.715729 
	C87.638489,142.893967 83.258415,141.365189 78.456024,140.082550 
	C77.702583,138.674179 77.320122,137.301300 76.929047,135.573868 
z"/>
<path fill="#70828E" opacity="1.000000" stroke="none" 
	d="
M156.804382,134.286621 
	C155.345184,136.190308 153.806854,137.708893 152.268539,139.227493 
	C150.350281,141.768463 150.727219,145.052429 154.168915,145.846619 
	C156.512070,146.387314 159.364655,144.679306 161.999069,144.014984 
	C163.498535,143.636841 165.017334,143.335327 166.527405,142.999329 
	C166.674149,144.626053 167.469101,146.570114 166.855057,147.824371 
	C164.242462,153.160828 154.686249,155.061844 149.781036,150.893158 
	C146.761322,148.326859 144.222198,147.583008 140.386032,148.555206 
	C135.168411,149.877502 128.007050,144.889954 127.281403,139.544067 
	C127.026077,137.663101 128.442902,135.555176 129.096222,133.550873 
	C130.466904,134.829742 132.372192,135.858383 133.109497,137.433701 
	C135.459030,142.453583 139.867065,143.863861 143.310654,140.301392 
	C144.811707,138.748520 145.909164,137.319016 143.410385,135.417130 
	C142.494308,134.719879 141.829559,132.609238 142.223190,131.601547 
	C142.566223,130.723328 144.741196,129.812180 145.790955,130.093552 
	C149.508850,131.090103 153.091431,132.591461 156.804382,134.286621 
z"/>
<path fill="#626265" opacity="1.000000" stroke="none" 
	d="
M115.374557,128.754669 
	C110.767532,123.267372 105.498047,122.727135 99.365379,124.944656 
	C97.955139,125.454597 95.976402,124.392357 94.259293,124.053635 
	C95.033463,122.462189 95.380852,120.156754 96.652092,119.396919 
	C104.061661,114.968063 115.513969,117.607193 120.203514,124.774681 
	C121.103210,126.149773 120.827324,128.294022 121.093781,130.083420 
	C119.272179,129.732788 117.450584,129.382141 115.374557,128.754669 
z"/>
<path fill="#626264" opacity="1.000000" stroke="none" 
	d="
M198.846527,151.220825 
	C193.726410,144.867844 187.978455,142.180222 180.220749,145.634705 
	C179.164978,146.104843 177.378372,144.933701 175.930145,144.522491 
	C176.531723,143.010101 176.693481,140.890884 177.806519,140.084106 
	C184.870117,134.964157 199.595261,139.059448 202.928146,147.047745 
	C204.331055,150.410263 202.964493,152.178070 198.846527,151.220825 
z"/>
<path fill="#98A2B2" opacity="1.000000" stroke="none" 
	d="
M194.036423,163.079590 
	C199.389252,164.395447 204.394730,165.532578 209.244781,167.138931 
	C210.599167,167.587494 211.494720,169.421356 212.600754,170.619736 
	C211.004715,171.347885 209.293701,172.868668 207.833984,172.656952 
	C203.286560,171.997421 198.802185,170.795792 194.365814,169.546967 
	C193.129623,169.198990 191.153549,167.818466 191.247391,167.157211 
	C191.452209,165.713928 192.768265,164.428360 194.036423,163.079590 
z"/>
<path fill="#97A2B1" opacity="1.000000" stroke="none" 
	d="
M190.221436,174.112640 
	C195.261505,177.060516 200.012497,179.965454 204.526413,183.201111 
	C205.290833,183.749084 205.035461,185.719727 205.251251,187.033066 
	C203.874252,187.169144 202.105179,187.920090 201.187927,187.335190 
	C197.145355,184.757370 193.265106,181.899933 189.497513,178.926529 
	C187.610184,177.437057 187.309937,175.581161 190.221436,174.112640 
z"/>
<path fill="#F7F8FA" opacity="1.000000" stroke="none" 
	d="
M181.095398,119.049026 
	C183.075912,119.506378 184.904633,119.545303 186.200882,120.395775 
	C187.604889,121.316940 188.512405,122.994820 189.636459,124.342667 
	C187.866821,125.077393 186.135468,126.260651 184.316376,126.415924 
	C182.625137,126.560295 180.864532,125.455482 179.091064,125.176147 
	C176.496429,124.767464 174.139694,123.686836 175.284729,120.890366 
	C175.766708,119.713257 178.822998,119.590233 181.095398,119.049026 
z"/>
<path fill="#F8F9FA" opacity="1.000000" stroke="none" 
	d="
M131.027328,106.712349 
	C131.610733,108.363548 132.402344,110.009277 131.947479,111.163963 
	C131.660873,111.891510 129.467041,112.262543 128.202255,112.123749 
	C125.913696,111.872604 123.478981,111.500885 121.491188,110.449753 
	C120.061897,109.693947 119.259636,107.752342 118.177673,106.339706 
	C119.787033,105.732254 121.436600,104.541153 122.996689,104.648636 
	C125.597351,104.827820 128.140732,105.838547 131.027328,106.712349 
z"/>
<path fill="#F5FCF1" opacity="1.000000" stroke="none" 
	d="
M92.599869,168.112976 
	C91.375603,163.250885 93.010124,160.109589 97.538063,159.116379 
	C101.356598,158.278778 104.545029,159.603714 105.794067,163.657700 
	C106.930969,167.347687 104.758179,171.185074 100.980751,172.308517 
	C97.181541,173.438431 94.563309,171.755096 92.599869,168.112976 
z"/>
<path fill="#F6FCF0" opacity="1.000000" stroke="none" 
	d="
M113.929779,165.891998 
	C114.103218,160.949112 116.614899,158.872849 120.997665,158.979767 
	C124.857185,159.073898 127.408562,161.068695 127.748489,164.949829 
	C128.103012,168.997482 125.871979,171.942719 121.989685,172.501099 
	C117.664406,173.123169 114.674492,170.894196 113.929779,165.891998 
z"/>
<path fill="#FEFDA7" opacity="1.000000" stroke="none" 
	d="
M83.772514,207.885529 
	C91.257599,211.917435 95.431465,217.481415 95.120483,226.030151 
	C94.983208,229.803833 95.452026,233.646988 96.111801,237.376160 
	C96.338440,238.657166 97.772331,240.291260 99.016312,240.723618 
	C103.471733,242.272186 105.705376,245.095444 104.820747,249.756302 
	C104.160683,253.234009 98.605522,255.887955 94.396606,255.725861 
	C88.310875,255.491455 82.204506,255.856216 76.111008,255.744278 
	C68.327362,255.601288 60.492916,255.668961 52.802052,254.689941 
	C50.677891,254.419525 47.510010,250.768631 47.482281,248.634232 
	C47.449963,246.146225 49.831367,242.201721 52.062279,241.407059 
	C56.665344,239.767380 57.072208,237.008835 57.050102,233.030853 
	C57.024506,228.425049 56.580154,223.453506 58.085789,219.278381 
	C62.108017,208.124741 70.824890,204.509918 83.772514,207.885529 
z"/>
<path fill="#FEFAA7" opacity="1.000000" stroke="none" 
	d="
M76.911064,261.970825 
	C79.412910,261.971313 81.454628,261.971313 83.496346,261.971313 
	C83.718063,262.614868 83.939781,263.258423 84.161499,263.901978 
	C81.654305,265.255554 79.255226,267.405579 76.612976,267.764252 
	C73.189270,268.228943 69.907982,266.718109 67.864082,261.970337 
	C71.101318,261.970337 73.776123,261.970337 76.911064,261.970825 
z"/>
</svg>