<svg version="1.1" id="Layer_1" xmlns="http://www.w3.org/2000/svg" xmlns:xlink="http://www.w3.org/1999/xlink" x="0px" y="0px"
	 width="100%" viewBox="0 0 367 397" enable-background="new 0 0 367 397" xml:space="preserve">
<path fill="#FEFEFE" opacity="1.000000" stroke="none" 
	d="
M74.999992,398.000000 
	C50.340431,398.000000 25.680862,398.000000 1.015971,398.000000 
	C1.010648,265.711853 1.010648,133.423691 1.010648,1.067770 
	C123.252914,1.067770 245.505890,1.067770 367.879425,1.067770 
	C367.879425,133.214767 367.879425,265.429688 367.879425,398.000000 
	C273.312744,398.000000 178.625031,398.000000 83.663589,397.662445 
	C95.824661,395.323486 106.938339,390.208740 116.932777,382.694580 
	C122.770821,378.305359 128.319504,373.531250 134.177124,369.239441 
	C145.056107,374.504761 156.193634,377.748444 168.310379,378.362488 
	C171.868134,382.890839 175.390076,382.058777 179.472076,379.043213 
	C198.917923,379.516327 216.940948,375.413666 234.481506,367.836792 
	C242.731522,376.423096 251.237686,384.087830 262.370941,388.135559 
	C277.443390,393.615479 290.598175,387.790161 296.437042,372.897705 
	C297.641693,369.825287 298.452698,366.546326 299.029175,363.288910 
	C301.495697,349.351196 299.323456,335.738525 295.571350,322.333008 
	C293.661041,315.507782 291.205048,308.835297 288.957764,301.977997 
	C290.861664,301.028992 292.495758,300.229218 294.117035,299.404175 
	C318.427948,287.032715 335.459930,268.118134 343.990265,242.189438 
	C351.181946,220.329834 353.490540,197.645828 353.125061,174.677811 
	C352.777283,152.822601 347.607941,132.199219 337.661835,112.718376 
	C336.856445,111.140907 336.991974,108.601479 337.626495,106.847794 
	C342.096802,94.492676 347.277466,82.376884 351.320160,69.889687 
	C355.434387,57.181606 357.767365,44.080055 356.058533,30.535950 
	C353.854340,13.065073 341.341827,2.734053 323.800842,4.744814 
	C316.736298,5.554638 309.626862,6.939530 302.841675,9.042824 
	C280.247192,16.046741 259.796173,27.601919 239.533936,39.547527 
	C236.904785,41.097549 233.283371,41.968044 230.257980,41.686707 
	C200.977036,38.963810 171.733643,38.935017 142.453064,41.692738 
	C139.423630,41.978054 135.914215,41.038372 133.150406,39.636337 
	C116.827324,31.355894 100.898727,22.262850 84.361229,14.451282 
	C71.549171,8.399439 57.967831,4.182443 43.411243,4.712997 
	C30.308588,5.190559 21.560389,11.967447 17.853067,24.602301 
	C14.907936,34.639561 15.708459,44.719566 17.545761,54.782635 
	C20.828939,72.764870 27.435461,89.638756 34.666824,106.329025 
	C35.551491,108.370857 35.235428,111.402740 34.453949,113.614784 
	C31.189365,122.855484 26.764475,131.745651 24.166744,141.151489 
	C16.207100,169.971634 18.903765,198.865479 24.654240,227.726089 
	C29.062746,249.851593 38.854855,269.035370 55.886913,283.867615 
	C63.945023,290.884918 73.353737,296.351318 82.328217,302.645020 
	C79.705215,306.283142 76.460861,310.479309 73.539696,314.889557 
	C63.231640,330.452179 54.725063,346.763458 53.596523,365.909698 
	C52.726315,380.673248 58.830708,393.757751 73.543289,396.878357 
	C74.083832,396.993011 74.516853,397.614655 74.999992,398.000000 
z"/>
<path fill="#6F848E" opacity="1.000000" stroke="none" 
	d="
M133.998367,368.930298 
	C128.319504,373.531250 122.770821,378.305359 116.932777,382.694580 
	C106.938339,390.208740 95.824661,395.323486 83.194931,397.662445 
	C80.629440,398.000000 78.258888,398.000000 75.444153,398.000000 
	C74.516853,397.614655 74.083832,396.993011 73.543289,396.878357 
	C58.830708,393.757751 52.726315,380.673248 53.596523,365.909698 
	C54.725063,346.763458 63.231640,330.452179 73.539696,314.889557 
	C76.460861,310.479309 79.705215,306.283142 82.328217,302.645020 
	C73.353737,296.351318 63.945023,290.884918 55.886913,283.867615 
	C38.854855,269.035370 29.062746,249.851593 24.654240,227.726089 
	C18.903765,198.865479 16.207100,169.971634 24.166744,141.151489 
	C26.764475,131.745651 31.189365,122.855484 34.453949,113.614784 
	C35.235428,111.402740 35.551491,108.370857 34.666824,106.329025 
	C27.435461,89.638756 20.828939,72.764870 17.545761,54.782635 
	C15.708459,44.719566 14.907936,34.639561 17.853067,24.602301 
	C21.560389,11.967447 30.308588,5.190559 43.411243,4.712997 
	C57.967831,4.182443 71.549171,8.399439 84.361229,14.451282 
	C100.898727,22.262850 116.827324,31.355894 133.150406,39.636337 
	C135.914215,41.038372 139.423630,41.978054 142.453064,41.692738 
	C171.733643,38.935017 200.977036,38.963810 230.257980,41.686707 
	C233.283371,41.968044 236.904785,41.097549 239.533936,39.547527 
	C259.796173,27.601919 280.247192,16.046741 302.841675,9.042824 
	C309.626862,6.939530 316.736298,5.554638 323.800842,4.744814 
	C341.341827,2.734053 353.854340,13.065073 356.058533,30.535950 
	C357.767365,44.080055 355.434387,57.181606 351.320160,69.889687 
	C347.277466,82.376884 342.096802,94.492676 337.626495,106.847794 
	C336.991974,108.601479 336.856445,111.140907 337.661835,112.718376 
	C347.607941,132.199219 352.777283,152.822601 353.125061,174.677811 
	C353.490540,197.645828 351.181946,220.329834 343.990265,242.189438 
	C335.459930,268.118134 318.427948,287.032715 294.117035,299.404175 
	C292.495758,300.229218 290.861664,301.028992 288.957764,301.977997 
	C291.205048,308.835297 293.661041,315.507782 295.571350,322.333008 
	C299.323456,335.738525 301.495697,349.351196 299.029175,363.288910 
	C298.452698,366.546326 297.641693,369.825287 296.437042,372.897705 
	C290.598175,387.790161 277.443390,393.615479 262.370941,388.135559 
	C251.237686,384.087830 242.731522,376.423096 234.380249,367.527039 
	C229.879669,361.603516 225.767349,356.171967 221.693970,350.374084 
	C223.548294,345.674866 225.363663,341.341919 227.453156,337.187622 
	C229.378601,340.050323 230.961105,342.779663 232.692963,345.410736 
	C240.804474,357.733795 249.750244,369.242493 263.500061,375.846222 
	C275.505249,381.612030 284.581299,376.994110 287.018188,363.887115 
	C290.192780,346.812317 286.652740,330.527008 280.802338,314.616028 
	C277.505951,305.651154 277.270111,305.733704 268.182434,308.184204 
	C267.912292,308.257080 267.715668,308.602631 267.320435,308.976501 
	C267.898834,310.936554 268.505280,312.992279 269.112091,315.047913 
	C270.511230,319.787323 269.269226,322.962036 265.639374,323.924133 
	C261.847076,324.929291 259.565521,322.891571 257.838409,318.286469 
	C252.010193,302.746429 246.354935,287.116364 239.761703,271.898499 
	C236.220078,263.724030 231.241867,256.021637 223.569229,250.758484 
	C216.272842,245.753418 210.711655,247.506058 209.297241,256.053589 
	C208.120178,263.166931 208.227264,270.578064 208.532150,277.825012 
	C208.788193,283.910370 210.149841,289.949219 210.737640,295.833771 
	C205.620392,289.178314 200.787491,282.697723 196.004242,275.729950 
	C196.702881,267.521881 196.540955,259.624359 198.175812,252.118225 
	C201.236725,238.064804 214.266922,232.428223 226.958786,239.075317 
	C230.156219,240.749878 233.019196,243.063034 236.101990,245.406738 
	C249.154739,260.651093 256.630493,278.555420 263.836273,298.133606 
	C273.161102,294.632599 282.093323,291.278992 291.349182,287.823120 
	C312.418243,276.001770 327.051575,258.990479 333.676483,236.105637 
	C339.777161,215.031769 342.266541,193.376648 341.219940,171.280899 
	C339.777649,140.830734 329.101379,114.428757 308.421692,92.096771 
	C305.762970,89.225624 305.114349,86.510475 307.390900,82.956833 
	C310.905090,80.079826 313.709167,80.995972 316.367676,83.709717 
	C317.857178,85.230125 319.454773,86.644630 321.132233,88.410820 
	C323.598846,91.660393 325.936890,94.605995 328.689484,98.073830 
	C330.699890,93.172485 332.548309,88.923470 334.197815,84.598572 
	C340.193359,68.878731 345.370392,52.949409 344.960632,35.832306 
	C344.634125,22.194580 337.053558,14.966562 324.385315,16.101528 
	C321.428467,16.366436 318.488556,16.984909 315.582886,17.630106 
	C295.037109,22.192251 276.760559,32.094643 258.501526,42.017159 
	C256.580017,43.061371 254.814667,44.392952 252.230667,46.077740 
	C259.657013,48.722958 266.028381,50.992390 272.666687,53.508278 
	C276.922455,55.735146 277.237061,59.184788 276.275696,63.042778 
	C273.032074,65.489655 270.094238,65.295883 266.674042,63.952312 
	C260.231262,61.421368 253.607040,59.352390 246.670166,57.006561 
	C233.848633,55.289177 221.415192,53.656601 208.603271,51.991318 
	C207.465408,51.952717 206.706039,51.946819 205.507050,51.942188 
	C192.383682,51.955185 179.699921,51.966915 166.637299,51.955975 
	C165.499924,51.948639 164.741409,51.963974 163.524048,51.977142 
	C150.358719,53.676968 137.652237,55.378967 124.576126,57.114708 
	C118.339302,59.317410 112.380379,61.272057 106.637146,63.730568 
	C102.798965,65.373581 99.397537,65.635391 96.023773,62.576794 
	C95.077118,58.054333 96.754066,55.174488 100.587067,53.103043 
	C107.127075,50.798954 113.299706,48.516617 120.537598,45.840401 
	C115.962440,43.231037 112.340965,41.038105 108.606873,39.057503 
	C90.401306,29.401106 72.144829,19.991558 51.430016,16.540779 
	C36.617462,14.073227 28.388313,20.576874 27.853735,35.460709 
	C27.286539,51.252640 31.503927,65.992897 36.822533,80.548546 
	C38.845718,86.085487 41.122402,91.529808 43.879932,98.530373 
	C46.836697,94.240120 48.925537,91.209221 51.351097,88.098221 
	C52.987823,86.767807 54.375042,85.595139 55.571003,84.252151 
	C58.772343,80.657265 62.148182,80.106834 65.963768,83.763824 
	C68.142426,87.841614 65.979881,90.329735 63.600658,92.860580 
	C42.519909,115.284744 31.963194,142.296600 31.306639,172.675629 
	C30.965340,188.467682 32.982441,204.423813 35.184868,220.130463 
	C38.273933,242.160187 47.478806,261.502808 64.762039,276.133911 
	C69.847374,280.438904 76.001625,283.481232 81.865372,287.406494 
	C88.787865,290.351532 95.519295,292.971375 102.231773,295.638916 
	C108.921532,298.297394 114.311432,297.415314 117.869690,290.433502 
	C118.901070,288.409760 120.625389,286.739197 122.316025,284.746643 
	C125.423477,281.472321 128.246948,278.358032 131.379852,275.093506 
	C140.737122,267.217438 149.932938,259.816803 163.282288,260.838074 
	C172.026108,262.597229 176.375977,268.225769 178.602875,276.480042 
	C177.651413,285.567993 176.631104,294.194153 175.387604,303.084839 
	C173.717224,307.163330 172.270035,310.977295 170.579102,315.040710 
	C166.169067,323.139618 162.002777,330.989044 157.549179,339.017212 
	C155.106903,342.717499 152.951965,346.239014 150.479187,349.869019 
	C144.773682,356.295105 139.386017,362.612701 133.998367,368.930298 
M115.549797,369.061279 
	C117.216583,367.690552 118.966820,366.408783 120.537460,364.935577 
	C139.897858,346.775909 154.620895,325.420410 163.546127,300.402466 
	C165.835739,293.984589 166.467209,286.818787 166.884689,279.937378 
	C167.236816,274.133362 162.670303,270.685547 157.293076,272.958435 
	C151.318817,275.483734 145.329254,278.834015 140.544586,283.152679 
	C125.585335,296.654938 114.805664,313.502380 104.669044,330.733154 
	C102.607948,334.236664 100.012421,336.066559 96.116226,334.329590 
	C92.559090,332.743774 92.027107,329.120819 94.470840,324.945648 
	C97.633232,319.542633 100.879433,314.188690 104.362297,308.356964 
	C99.799271,307.318848 95.706932,304.025116 92.351952,309.180145 
	C85.477234,319.743439 77.652481,329.890747 72.345024,341.206543 
	C68.231346,349.977112 66.072525,360.169312 65.359322,369.899261 
	C64.512825,381.447662 72.358543,386.985291 83.730095,385.129303 
	C95.792023,383.160645 105.691673,376.937653 115.549797,369.061279 
z"/>
<path fill="#FCCE7D" opacity="1.000000" stroke="none" 
	d="
M150.797028,349.760559 
	C152.951965,346.239014 155.106903,342.717499 157.868622,339.188202 
	C162.981613,346.667969 167.487823,354.155457 172.205582,361.994476 
	C178.083939,354.520844 184.813934,349.680695 194.322800,349.931885 
	C202.717194,350.153687 209.638428,347.371460 213.768875,339.511353 
	C218.117859,331.235352 215.941376,323.634491 210.973572,316.609619 
	C204.756546,307.818237 198.383179,299.122986 191.725357,290.663208 
	C187.671127,285.511688 182.953613,280.882172 178.534027,276.018188 
	C176.375977,268.225769 172.026108,262.597229 163.117493,260.569092 
	C156.629898,254.384293 149.542038,250.541428 141.558548,248.398392 
	C136.541595,247.051697 130.519577,250.159088 130.163376,255.200836 
	C129.695206,261.827362 130.699387,268.557953 131.070419,275.243774 
	C128.246948,278.358032 125.423477,281.472321 122.166466,284.409546 
	C120.514244,279.084473 118.740662,273.994873 118.190948,268.776367 
	C117.000198,257.472351 117.069031,246.320038 128.650238,239.041962 
	C135.605682,236.086685 142.252563,236.228760 148.967041,238.503311 
	C161.134201,242.624954 170.533676,250.868820 179.648010,259.406067 
	C185.339142,264.736877 190.535965,270.595398 195.954590,276.217133 
	C200.787491,282.697723 205.620392,289.178314 210.729721,295.816284 
	C211.006149,295.973663 210.967682,295.970093 211.066193,296.206390 
	C211.433533,296.640686 211.702362,296.838715 212.086456,297.357483 
	C213.046906,298.898468 213.870712,300.134216 214.740692,301.336517 
	C222.447327,311.987183 230.108871,322.650513 227.179031,337.009003 
	C225.363663,341.341919 223.548294,345.674866 221.376877,350.468658 
	C213.527771,357.852692 204.955872,361.567841 194.475754,361.207886 
	C188.792099,361.012756 184.357071,364.449738 181.864975,369.555420 
	C180.438797,372.477264 179.928589,375.846222 179.005981,379.013855 
	C175.390076,382.058777 171.868134,382.890839 168.181793,378.024597 
	C162.131454,368.239288 156.464249,358.999908 150.797028,349.760559 
z"/>
<path fill="#B2B8C2" opacity="1.000000" stroke="none" 
	d="
M179.472061,379.043213 
	C179.928589,375.846222 180.438797,372.477264 181.864975,369.555420 
	C184.357071,364.449738 188.792099,361.012756 194.475754,361.207886 
	C204.955872,361.567841 213.527771,357.852692 221.337921,350.834961 
	C225.767349,356.171967 229.879669,361.603516 234.093231,367.344849 
	C216.940948,375.413666 198.917923,379.516327 179.472061,379.043213 
z"/>
<path fill="#B2B8C1" opacity="1.000000" stroke="none" 
	d="
M150.479187,349.869019 
	C156.464249,358.999908 162.131454,368.239288 167.927246,377.816528 
	C156.193634,377.748444 145.056107,374.504761 134.177124,369.239441 
	C139.386017,362.612701 144.773682,356.295105 150.479187,349.869019 
z"/>
<path fill="#B0B7C2" opacity="1.000000" stroke="none" 
	d="
M196.004242,275.729950 
	C190.535965,270.595398 185.339142,264.736877 179.648010,259.406067 
	C170.533676,250.868820 161.134201,242.624954 148.967041,238.503311 
	C142.252563,236.228760 135.605682,236.086685 128.447693,238.739563 
	C117.839241,227.504333 117.121902,211.783249 125.598679,199.557709 
	C130.921280,191.881226 134.255188,183.490784 132.780548,173.582520 
	C134.569412,171.263168 136.417572,169.310806 137.871017,167.099060 
	C139.778229,164.196793 139.501694,161.258469 136.584167,159.167892 
	C133.505585,156.961929 130.717239,157.687820 128.286942,160.579895 
	C119.843803,170.627274 110.824593,172.522949 99.614998,166.505066 
	C96.088799,164.612045 93.130272,164.808350 91.016991,168.278030 
	C88.820694,171.884003 90.385048,174.776093 93.681091,176.648758 
	C96.699707,178.363800 99.958862,179.655487 103.106071,181.495209 
	C98.967735,187.174881 95.148346,192.777252 90.634369,197.748962 
	C82.555275,206.647293 76.472198,223.531754 85.124992,237.310364 
	C87.242020,240.681519 89.107780,244.220779 91.368279,247.489685 
	C100.649796,260.911804 94.329597,281.353027 81.665993,287.102264 
	C76.001625,283.481232 69.847374,280.438904 64.762039,276.133911 
	C47.478806,261.502808 38.273933,242.160187 35.184868,220.130463 
	C32.982441,204.423813 30.965340,188.467682 31.306639,172.675629 
	C31.963194,142.296600 42.519909,115.284744 63.600658,92.860580 
	C65.979881,90.329735 68.142426,87.841614 66.265900,83.562531 
	C68.611046,81.220528 70.589767,79.184174 72.908798,77.668503 
	C80.545670,72.677223 88.305763,67.874481 96.018532,62.999332 
	C99.397537,65.635391 102.798965,65.373581 106.637146,63.730568 
	C112.380379,61.272057 118.339302,59.317410 124.599342,57.531208 
	C125.328186,60.696369 125.654610,63.479961 126.001869,66.260956 
	C127.324699,76.854553 129.679413,87.193130 135.292770,96.397194 
	C140.584366,105.073654 148.126968,104.975037 153.706329,96.483521 
	C154.250412,95.655434 154.637817,94.723396 155.086884,93.834015 
	C161.735672,80.665573 163.473511,66.452911 163.982895,51.979313 
	C164.741409,51.963974 165.499924,51.948639 166.629700,52.426811 
	C167.668625,63.153900 167.656906,73.491295 169.200180,83.591080 
	C170.664322,93.172882 172.734131,102.941078 180.512695,110.043388 
	C184.876328,114.027641 188.800369,114.321617 192.531769,109.743164 
	C195.615875,105.958961 198.313705,101.553802 199.991486,96.986221 
	C205.321945,82.474876 206.215240,67.257370 205.946655,51.940926 
	C206.706039,51.946819 207.465408,51.952717 208.605927,52.451336 
	C209.326141,58.220642 208.886047,63.696342 210.172653,68.730774 
	C212.568665,78.106369 214.985382,87.709160 219.219330,96.319588 
	C223.789963,105.614815 231.623337,105.350723 237.182617,96.527573 
	C244.746490,84.522903 246.692307,70.971779 247.058258,57.091370 
	C253.607040,59.352390 260.231262,61.421368 266.674042,63.952312 
	C270.094238,65.295883 273.032074,65.489655 276.666565,63.043148 
	C284.181152,67.374397 290.997498,71.673096 297.695923,76.148277 
	C300.947723,78.320786 303.978729,80.823723 307.109711,83.177071 
	C305.114349,86.510475 305.762970,89.225624 308.421692,92.096771 
	C329.101379,114.428757 339.777649,140.830734 341.219940,171.280899 
	C342.266541,193.376648 339.777161,215.031769 333.676483,236.105637 
	C327.051575,258.990479 312.418243,276.001770 291.313202,287.484375 
	C290.038727,286.090759 289.274933,284.761475 288.184296,283.804657 
	C281.454132,277.900208 278.971283,270.453278 278.827057,261.606903 
	C278.684845,252.882797 283.382965,246.526169 287.724304,239.862030 
	C292.629547,232.332230 295.101868,224.359848 292.902008,215.314331 
	C290.914978,207.144073 286.404541,200.528290 280.918854,194.332550 
	C277.327240,190.276031 274.267426,185.748627 271.251923,181.263123 
	C273.839813,180.156082 276.200287,179.332245 278.437927,178.253632 
	C281.912781,176.578705 283.627350,173.846222 281.739014,170.144577 
	C280.017212,166.769379 277.049805,166.417801 273.617065,167.708313 
	C270.998779,168.692642 268.287384,169.753113 265.543549,170.019836 
	C256.773987,170.872299 250.091003,167.265213 245.333817,159.858261 
	C243.261108,156.631058 240.308044,155.294037 236.866562,157.666977 
	C233.551788,159.952545 233.141037,163.104828 235.652634,166.292297 
	C237.997162,169.267761 240.578445,172.056702 242.737854,175.206696 
	C240.745514,183.109314 243.010666,189.780106 246.786102,196.380493 
	C249.804810,201.657913 252.755936,207.211151 254.340866,213.022736 
	C257.760925,225.563278 247.946411,242.086395 236.035873,245.082718 
	C233.019196,243.063034 230.156219,240.749878 226.958786,239.075317 
	C214.266922,232.428223 201.236725,238.064804 198.175812,252.118225 
	C196.540955,259.624359 196.702881,267.521881 196.004242,275.729950 
M159.014221,197.665329 
	C158.994919,204.260559 158.367371,210.922287 159.079849,217.437500 
	C160.682648,232.093750 173.185364,241.468811 188.125961,239.877609 
	C203.322586,238.259140 211.608307,231.432449 213.679123,217.806625 
	C214.545898,212.103317 214.608032,206.083359 213.846420,200.365799 
	C212.038330,186.791840 207.657730,174.484894 194.336365,167.518021 
	C193.012466,166.825638 192.528351,164.527420 191.296066,162.337631 
	C196.622681,161.920898 200.489136,160.707642 199.768692,155.988113 
	C199.442200,153.849396 196.709747,150.707108 194.749435,150.449432 
	C189.192413,149.718979 183.397018,149.732788 177.852097,150.535370 
	C175.796371,150.832932 173.093155,153.953445 172.716766,156.136765 
	C172.439743,157.743622 175.393845,159.984497 177.048889,161.815628 
	C177.902420,162.759979 180.027542,163.675919 179.899628,164.171341 
	C179.548782,165.530167 178.473419,166.835083 177.390778,167.846603 
	C174.264496,170.767532 170.009354,172.969345 167.994141,176.483749 
	C164.335464,182.864258 161.975677,189.989594 159.014221,197.665329 
M263.588837,140.907532 
	C259.654694,139.106384 255.750595,137.235519 251.778152,135.523224 
	C247.579666,133.713470 243.822739,134.796524 242.585724,138.382370 
	C241.229004,142.315186 243.536133,144.686966 246.826630,146.263916 
	C250.877869,148.205444 254.963593,150.077591 259.065704,151.909683 
	C263.505615,153.892624 267.114105,153.078766 268.444916,149.517075 
	C269.958435,145.466339 267.954834,142.830276 263.588837,140.907532 
M106.621048,142.195923 
	C103.407745,144.373413 102.784767,147.653534 104.975777,150.304077 
	C106.264122,151.862640 109.820946,152.960159 111.717178,152.332062 
	C117.020821,150.575317 122.061813,147.951126 127.068886,145.399307 
	C130.504776,143.648239 130.998215,140.353729 129.352203,137.318573 
	C127.783463,134.425919 125.003014,133.512360 121.689919,135.135773 
	C116.938171,137.464142 112.102776,139.621811 106.621048,142.195923 
z"/>
<path fill="#B0B7C2" opacity="1.000000" stroke="none" 
	d="
M115.292923,369.307922 
	C105.691673,376.937653 95.792023,383.160645 83.730095,385.129303 
	C72.358543,386.985291 64.512825,381.447662 65.359322,369.899261 
	C66.072525,360.169312 68.231346,349.977112 72.345024,341.206543 
	C77.652481,329.890747 85.477234,319.743439 92.351952,309.180145 
	C95.706932,304.025116 99.799271,307.318848 104.362297,308.356964 
	C100.879433,314.188690 97.633232,319.542633 94.470840,324.945648 
	C92.027107,329.120819 92.559090,332.743774 96.116226,334.329590 
	C100.012421,336.066559 102.607948,334.236664 104.669044,330.733154 
	C114.805664,313.502380 125.585335,296.654938 140.544586,283.152679 
	C145.329254,278.834015 151.318817,275.483734 157.293076,272.958435 
	C162.670303,270.685547 167.236816,274.133362 166.884689,279.937378 
	C166.467209,286.818787 165.835739,293.984589 163.546127,300.402466 
	C154.620895,325.420410 139.897858,346.775909 120.537460,364.935577 
	C118.966820,366.408783 117.216583,367.690552 115.292923,369.307922 
z"/>
<path fill="#B0B7C2" opacity="1.000000" stroke="none" 
	d="
M227.453156,337.187622 
	C230.108871,322.650513 222.447327,311.987183 214.740692,301.336517 
	C213.870712,300.134216 213.046906,298.898468 211.982712,297.123596 
	C211.498383,296.369354 211.233032,296.169708 210.967682,295.970093 
	C210.967682,295.970093 211.006149,295.973663 211.014069,295.991150 
	C210.149841,289.949219 208.788193,283.910370 208.532150,277.825012 
	C208.227264,270.578064 208.120178,263.166931 209.297241,256.053589 
	C210.711655,247.506058 216.272842,245.753418 223.569229,250.758484 
	C231.241867,256.021637 236.220078,263.724030 239.761703,271.898499 
	C246.354935,287.116364 252.010193,302.746429 257.838409,318.286469 
	C259.565521,322.891571 261.847076,324.929291 265.639374,323.924133 
	C269.269226,322.962036 270.511230,319.787323 269.112091,315.047913 
	C268.505280,312.992279 267.898834,310.936554 267.320435,308.976501 
	C267.715668,308.602631 267.912292,308.257080 268.182434,308.184204 
	C277.270111,305.733704 277.505951,305.651154 280.802338,314.616028 
	C286.652740,330.527008 290.192780,346.812317 287.018188,363.887115 
	C284.581299,376.994110 275.505249,381.612030 263.500061,375.846222 
	C249.750244,369.242493 240.804474,357.733795 232.692963,345.410736 
	C230.961105,342.779663 229.378601,340.050323 227.453156,337.187622 
z"/>
<path fill="#A9F2F6" opacity="1.000000" stroke="none" 
	d="
M270.969452,181.432114 
	C274.267426,185.748627 277.327240,190.276031 280.918854,194.332550 
	C286.404541,200.528290 290.914978,207.144073 292.902008,215.314331 
	C295.101868,224.359848 292.629547,232.332230 287.724304,239.862030 
	C283.382965,246.526169 278.684845,252.882797 278.827057,261.606903 
	C278.971283,270.453278 281.454132,277.900208 288.184296,283.804657 
	C289.274933,284.761475 290.038727,286.090759 290.989563,287.586639 
	C282.093323,291.278992 273.161102,294.632599 263.836273,298.133606 
	C256.630493,278.555420 249.154739,260.651093 236.101990,245.406738 
	C247.946411,242.086395 257.760925,225.563278 254.340866,213.022736 
	C252.755936,207.211151 249.804810,201.657913 246.786102,196.380493 
	C243.010666,189.780106 240.745514,183.109314 243.043243,175.364685 
	C251.839401,181.400604 261.065125,182.913376 270.969452,181.432114 
z"/>
<path fill="#A9F2F6" opacity="1.000000" stroke="none" 
	d="
M132.664246,173.834137 
	C134.255188,183.490784 130.921280,191.881226 125.598679,199.557709 
	C117.121902,211.783249 117.839241,227.504333 128.077255,238.811249 
	C117.069031,246.320038 117.000198,257.472351 118.190948,268.776367 
	C118.740662,273.994873 120.514244,279.084473 121.882492,284.569611 
	C120.625389,286.739197 118.901070,288.409760 117.869690,290.433502 
	C114.311432,297.415314 108.921532,298.297394 102.231773,295.638916 
	C95.519295,292.971375 88.787865,290.351532 81.865372,287.406494 
	C94.329597,281.353027 100.649796,260.911804 91.368279,247.489685 
	C89.107780,244.220779 87.242020,240.681519 85.124992,237.310364 
	C76.472198,223.531754 82.555275,206.647293 90.634369,197.748962 
	C95.148346,192.777252 98.967735,187.174881 103.514221,181.449982 
	C114.546555,182.784088 124.011383,179.927399 132.664246,173.834137 
z"/>
<path fill="#FEFDA6" opacity="1.000000" stroke="none" 
	d="
M178.602875,276.480042 
	C182.953613,280.882172 187.671127,285.511688 191.725357,290.663208 
	C198.383179,299.122986 204.756546,307.818237 210.973572,316.609619 
	C215.941376,323.634491 218.117859,331.235352 213.768875,339.511353 
	C209.638428,347.371460 202.717194,350.153687 194.322800,349.931885 
	C184.813934,349.680695 178.083939,354.520844 172.205582,361.994476 
	C167.487823,354.155457 162.981613,346.667969 158.155945,339.009460 
	C162.002777,330.989044 166.169067,323.139618 170.890686,315.218201 
	C176.923828,322.017639 182.596634,328.745728 187.797897,335.820496 
	C190.430389,339.401215 193.286774,339.967804 196.765579,337.977783 
	C199.716751,336.289612 199.797134,332.270142 197.139404,328.746521 
	C193.743912,324.244751 190.360443,319.725037 186.758087,315.390686 
	C183.180283,311.085876 179.337433,307.001404 175.610809,302.820282 
	C176.631104,294.194153 177.651413,285.567993 178.602875,276.480042 
z"/>
<path fill="#FEFEFE" opacity="1.000000" stroke="none" 
	d="
M307.390900,82.956833 
	C303.978729,80.823723 300.947723,78.320786 297.695923,76.148277 
	C290.997498,71.673096 284.181152,67.374397 277.022461,63.002716 
	C277.237061,59.184788 276.922455,55.735146 272.915649,53.213993 
	C276.043060,49.509853 278.954010,46.061722 282.380615,43.239716 
	C290.637451,36.439697 299.378235,30.438246 310.235077,28.393362 
	C322.476624,26.087673 332.287689,36.254177 328.766571,48.033127 
	C327.644775,51.785854 325.717499,55.453640 323.448486,58.657177 
	C321.703735,61.120499 321.399353,63.023438 322.278870,65.850853 
	C324.613678,73.356613 326.673492,80.997658 321.003662,88.106857 
	C319.454773,86.644630 317.857178,85.230125 316.367676,83.709717 
	C313.709167,80.995972 310.905090,80.079826 307.390900,82.956833 
z"/>
<path fill="#FEFEFE" opacity="1.000000" stroke="none" 
	d="
M96.023773,62.576794 
	C88.305763,67.874481 80.545670,72.677223 72.908798,77.668503 
	C70.589767,79.184174 68.611046,81.220528 66.174316,83.219688 
	C62.148182,80.106834 58.772343,80.657265 55.571003,84.252151 
	C54.375042,85.595139 52.987823,86.767807 51.261269,87.726044 
	C49.897015,83.799400 47.357475,79.659904 48.314888,76.622772 
	C51.484524,66.567924 49.473766,58.025204 44.357155,49.213608 
	C41.665508,44.578186 41.665100,38.869770 45.981369,34.377052 
	C50.643322,29.524519 56.262299,26.921204 63.029865,28.570869 
	C78.322807,32.298691 90.015083,41.617741 100.219696,53.124790 
	C96.754066,55.174488 95.077118,58.054333 96.023773,62.576794 
z"/>
<path fill="#B0B7C2" opacity="1.000000" stroke="none" 
	d="
M100.587067,53.103043 
	C90.015083,41.617741 78.322807,32.298691 63.029865,28.570869 
	C56.262299,26.921204 50.643322,29.524519 45.981369,34.377052 
	C41.665100,38.869770 41.665508,44.578186 44.357155,49.213608 
	C49.473766,58.025204 51.484524,66.567924 48.314888,76.622772 
	C47.357475,79.659904 49.897015,83.799400 50.924553,87.806129 
	C48.925537,91.209221 46.836697,94.240120 43.879932,98.530373 
	C41.122402,91.529808 38.845718,86.085487 36.822533,80.548546 
	C31.503927,65.992897 27.286539,51.252640 27.853735,35.460709 
	C28.388313,20.576874 36.617462,14.073227 51.430016,16.540779 
	C72.144829,19.991558 90.401306,29.401106 108.606873,39.057503 
	C112.340965,41.038105 115.962440,43.231037 120.537598,45.840401 
	C113.299706,48.516617 107.127075,50.798954 100.587067,53.103043 
z"/>
<path fill="#B0B7C2" opacity="1.000000" stroke="none" 
	d="
M321.132233,88.410828 
	C326.673492,80.997658 324.613678,73.356613 322.278870,65.850853 
	C321.399353,63.023438 321.703735,61.120499 323.448486,58.657177 
	C325.717499,55.453640 327.644775,51.785854 328.766571,48.033127 
	C332.287689,36.254177 322.476624,26.087673 310.235077,28.393362 
	C299.378235,30.438246 290.637451,36.439697 282.380615,43.239716 
	C278.954010,46.061722 276.043060,49.509853 272.648682,52.967537 
	C266.028381,50.992390 259.657013,48.722958 252.230667,46.077740 
	C254.814667,44.392952 256.580017,43.061371 258.501526,42.017159 
	C276.760559,32.094643 295.037109,22.192251 315.582886,17.630106 
	C318.488556,16.984909 321.428467,16.366436 324.385315,16.101528 
	C337.053558,14.966562 344.634125,22.194580 344.960632,35.832306 
	C345.370392,52.949409 340.193359,68.878731 334.197815,84.598572 
	C332.548309,88.923470 330.699890,93.172485 328.689484,98.073830 
	C325.936890,94.605995 323.598846,91.660393 321.132233,88.410828 
z"/>
<path fill="#939FB1" opacity="1.000000" stroke="none" 
	d="
M205.507050,51.942192 
	C206.215240,67.257370 205.321945,82.474876 199.991486,96.986221 
	C198.313705,101.553802 195.615875,105.958961 192.531769,109.743164 
	C188.800369,114.321617 184.876328,114.027641 180.512695,110.043388 
	C172.734131,102.941078 170.664322,93.172882 169.200180,83.591080 
	C167.656906,73.491295 167.668625,63.153900 167.008575,52.449482 
	C179.699921,51.966915 192.383682,51.955185 205.507050,51.942192 
z"/>
<path fill="#939FB1" opacity="1.000000" stroke="none" 
	d="
M163.524048,51.977142 
	C163.473511,66.452911 161.735672,80.665573 155.086884,93.834015 
	C154.637817,94.723396 154.250412,95.655434 153.706329,96.483521 
	C148.126968,104.975037 140.584366,105.073654 135.292770,96.397194 
	C129.679413,87.193130 127.324699,76.854553 126.001869,66.260956 
	C125.654610,63.479961 125.328186,60.696369 124.968979,57.497467 
	C137.652237,55.378967 150.358719,53.676968 163.524048,51.977142 
z"/>
<path fill="#939FB1" opacity="1.000000" stroke="none" 
	d="
M246.670166,57.006561 
	C246.692307,70.971779 244.746490,84.522903 237.182617,96.527573 
	C231.623337,105.350723 223.789963,105.614815 219.219330,96.319588 
	C214.985382,87.709160 212.568665,78.106369 210.172653,68.730774 
	C208.886047,63.696342 209.326141,58.220642 208.984421,52.484039 
	C221.415192,53.656601 233.848633,55.289177 246.670166,57.006561 
z"/>
<path fill="#FCFCA7" opacity="1.000000" stroke="none" 
	d="
M131.379852,275.093506 
	C130.699387,268.557953 129.695206,261.827362 130.163376,255.200836 
	C130.519577,250.159088 136.541595,247.051697 141.558548,248.398392 
	C149.542038,250.541428 156.629898,254.384293 162.748993,260.464294 
	C149.932938,259.816803 140.737122,267.217438 131.379852,275.093506 
z"/>
<path fill="#FDCE7C" opacity="1.000000" stroke="none" 
	d="
M175.387604,303.084839 
	C179.337433,307.001404 183.180283,311.085876 186.758087,315.390686 
	C190.360443,319.725037 193.743912,324.244751 197.139404,328.746521 
	C199.797134,332.270142 199.716751,336.289612 196.765579,337.977783 
	C193.286774,339.967804 190.430389,339.401215 187.797897,335.820496 
	C182.596634,328.745728 176.923828,322.017639 171.134430,314.968750 
	C172.270035,310.977295 173.717224,307.163330 175.387604,303.084839 
z"/>
<path fill="#6F848E" opacity="1.000000" stroke="none" 
	d="
M211.066193,296.206390 
	C211.233032,296.169708 211.498383,296.369354 211.867462,296.802856 
	C211.702362,296.838715 211.433533,296.640686 211.066193,296.206390 
z"/>
<path fill="#6F838D" opacity="1.000000" stroke="none" 
	d="
M159.044006,197.234680 
	C161.975677,189.989594 164.335464,182.864258 167.994141,176.483749 
	C170.009354,172.969345 174.264496,170.767532 177.390778,167.846603 
	C178.473419,166.835083 179.548782,165.530167 179.899628,164.171341 
	C180.027542,163.675919 177.902420,162.759979 177.048889,161.815628 
	C175.393845,159.984497 172.439743,157.743622 172.716766,156.136765 
	C173.093155,153.953445 175.796371,150.832932 177.852097,150.535370 
	C183.397018,149.732788 189.192413,149.718979 194.749435,150.449432 
	C196.709747,150.707108 199.442200,153.849396 199.768692,155.988113 
	C200.489136,160.707642 196.622681,161.920898 191.296066,162.337631 
	C192.528351,164.527420 193.012466,166.825638 194.336365,167.518021 
	C207.657730,174.484894 212.038330,186.791840 213.846420,200.365799 
	C214.608032,206.083359 214.545898,212.103317 213.679123,217.806625 
	C211.608307,231.432449 203.322586,238.259140 188.125961,239.877609 
	C173.185364,241.468811 160.682648,232.093750 159.079849,217.437500 
	C158.367371,210.922287 158.994919,204.260559 159.044006,197.234680 
M182.906799,227.964600 
	C185.063492,227.967453 187.435226,228.550705 189.330612,227.848343 
	C192.915405,226.520004 198.002838,225.318970 199.353470,222.547974 
	C206.373627,208.145248 205.043350,200.350555 188.824356,197.240982 
	C182.605545,196.048691 171.752136,200.346375 170.116501,204.341949 
	C166.444687,213.311554 172.580444,225.451767 182.906799,227.964600 
z"/>
<path fill="#605E60" opacity="1.000000" stroke="none" 
	d="
M132.780548,173.582520 
	C124.011383,179.927399 114.546555,182.784088 103.520172,181.088501 
	C99.958862,179.655487 96.699707,178.363800 93.681091,176.648758 
	C90.385048,174.776093 88.820694,171.884003 91.016991,168.278030 
	C93.130272,164.808350 96.088799,164.612045 99.614998,166.505066 
	C110.824593,172.522949 119.843803,170.627274 128.286942,160.579895 
	C130.717239,157.687820 133.505585,156.961929 136.584167,159.167892 
	C139.501694,161.258469 139.778229,164.196793 137.871017,167.099060 
	C136.417572,169.310806 134.569412,171.263168 132.780548,173.582520 
z"/>
<path fill="#615F61" opacity="1.000000" stroke="none" 
	d="
M271.251923,181.263123 
	C261.065125,182.913376 251.839401,181.400604 243.360901,175.085724 
	C240.578445,172.056702 237.997162,169.267761 235.652634,166.292297 
	C233.141037,163.104828 233.551788,159.952545 236.866562,157.666977 
	C240.308044,155.294037 243.261108,156.631058 245.333817,159.858261 
	C250.091003,167.265213 256.773987,170.872299 265.543549,170.019836 
	C268.287384,169.753113 270.998779,168.692642 273.617065,167.708313 
	C277.049805,166.417801 280.017212,166.769379 281.739014,170.144577 
	C283.627350,173.846222 281.912781,176.578705 278.437927,178.253632 
	C276.200287,179.332245 273.839813,180.156082 271.251923,181.263123 
z"/>
<path fill="#FCFCFD" opacity="1.000000" stroke="none" 
	d="
M263.934448,141.052917 
	C267.954834,142.830276 269.958435,145.466339 268.444916,149.517075 
	C267.114105,153.078766 263.505615,153.892624 259.065704,151.909683 
	C254.963593,150.077591 250.877869,148.205444 246.826630,146.263916 
	C243.536133,144.686966 241.229004,142.315186 242.585724,138.382370 
	C243.822739,134.796524 247.579666,133.713470 251.778152,135.523224 
	C255.750595,137.235519 259.654694,139.106384 263.934448,141.052917 
z"/>
<path fill="#FCFDFD" opacity="1.000000" stroke="none" 
	d="
M106.962067,142.024139 
	C112.102776,139.621811 116.938171,137.464142 121.689919,135.135773 
	C125.003014,133.512360 127.783463,134.425919 129.352203,137.318573 
	C130.998215,140.353729 130.504776,143.648239 127.068886,145.399307 
	C122.061813,147.951126 117.020821,150.575317 111.717178,152.332062 
	C109.820946,152.960159 106.264122,151.862640 104.975777,150.304077 
	C102.784767,147.653534 103.407745,144.373413 106.962067,142.024139 
z"/>
<path fill="#EA86A4" opacity="1.000000" stroke="none" 
	d="
M182.472443,227.947296 
	C172.580444,225.451767 166.444687,213.311554 170.116501,204.341949 
	C171.752136,200.346375 182.605545,196.048691 188.824356,197.240982 
	C205.043350,200.350555 206.373627,208.145248 199.353470,222.547974 
	C198.002838,225.318970 192.915405,226.520004 189.330612,227.848343 
	C187.435226,228.550705 185.063492,227.967453 182.472443,227.947296 
z"/>
</svg>