<svg version="1.1" id="Layer_1" xmlns="http://www.w3.org/2000/svg" xmlns:xlink="http://www.w3.org/1999/xlink" x="0px" y="0px"
	 width="100%" viewBox="0 0 255 291" enable-background="new 0 0 255 291" xml:space="preserve">
<path fill="#FEFEFE" opacity="1.000000" stroke="none" 
	d="
M1.000000,107.000000 
	C1.000000,71.333336 1.000000,36.166676 1.000000,1.000010 
	C85.999985,1.000006 170.999969,1.000006 255.999969,1.000003 
	C255.999969,97.999969 255.999969,194.999939 255.999985,291.999939 
	C171.000031,291.999939 86.000069,291.999939 1.000054,291.999969 
	C1.000000,230.500000 1.000000,169.000000 1.000000,107.000000 
M217.836426,135.634338 
	C215.667679,133.988525 213.498947,132.342712 211.573730,129.863358 
	C213.811172,110.125839 211.954483,90.949646 203.140121,72.896973 
	C200.406723,67.298714 195.209930,62.402664 194.144089,56.630577 
	C193.062897,50.775459 196.479721,44.237736 196.501053,37.994095 
	C196.528534,29.953793 196.197403,21.615713 194.076828,13.943146 
	C191.674744,5.251937 184.553085,2.251481 175.870728,4.687319 
	C171.911316,5.798132 167.771927,7.212284 164.474884,9.558054 
	C155.411926,16.006117 146.590057,22.824545 138.015091,29.910641 
	C134.820755,32.550350 131.729279,34.231247 127.601852,34.955666 
	C115.984352,36.994694 104.265488,38.884518 92.962959,42.139896 
	C85.374031,44.325676 78.841988,43.822098 71.341408,41.727142 
	C59.898685,38.531124 48.003605,36.089844 36.175835,35.365627 
	C22.696630,34.540298 16.670528,42.547756 18.969627,55.826622 
	C21.106071,68.166054 28.332708,78.060837 34.914074,88.287712 
	C36.231949,90.335571 36.929234,93.574615 36.385796,95.908966 
	C28.964195,127.788460 43.292301,164.027237 70.684769,182.033722 
	C70.910614,182.182175 70.974754,182.576630 71.224937,183.077560 
	C69.456017,185.339798 67.450333,187.563766 65.833977,190.041687 
	C62.274574,195.498337 60.716496,201.370773 64.017433,207.479248 
	C67.164711,213.303406 72.594658,215.709747 78.940613,215.899734 
	C82.568489,216.008347 86.216881,215.431732 90.009399,215.826752 
	C98.489189,229.699677 111.239502,235.248367 127.718346,235.013794 
	C130.783463,238.200729 133.848587,241.387680 136.095398,244.735992 
	C130.115967,245.458282 124.378624,246.886856 121.920242,253.182785 
	C119.363899,259.729584 122.641106,265.017059 127.026276,269.309326 
	C138.615936,280.653442 152.756393,286.131744 168.950180,285.980957 
	C175.630417,285.918793 182.298965,284.656250 185.391815,277.807739 
	C188.328262,271.305511 184.880768,265.936676 181.309021,260.452118 
	C182.277832,260.283234 183.240326,260.033997 184.216385,259.957245 
	C208.001740,258.086487 226.345596,247.194656 239.053848,226.933670 
	C245.099823,217.294479 248.015198,206.577515 248.719208,195.418198 
	C249.290771,186.358292 248.460846,177.261383 244.266388,168.383865 
	C246.030685,165.652832 248.537247,163.139633 249.415039,160.148453 
	C251.712021,152.321060 246.317093,139.003387 239.266312,134.040710 
	C231.835648,128.810669 225.123077,131.830185 218.602600,136.157745 
	C218.470261,136.245575 218.288132,136.258423 217.836426,135.634338 
z"/>
<path fill="#738691" opacity="1.000000" stroke="none" 
	d="
M89.856049,215.163635 
	C86.216881,215.431732 82.568489,216.008347 78.940613,215.899734 
	C72.594658,215.709747 67.164711,213.303406 64.017433,207.479248 
	C60.716496,201.370773 62.274574,195.498337 65.833977,190.041687 
	C67.450333,187.563766 69.456017,185.339798 71.224937,183.077560 
	C70.974754,182.576630 70.910614,182.182175 70.684769,182.033722 
	C43.292301,164.027237 28.964195,127.788460 36.385796,95.908966 
	C36.929234,93.574615 36.231949,90.335571 34.914074,88.287712 
	C28.332708,78.060837 21.106071,68.166054 18.969627,55.826622 
	C16.670528,42.547756 22.696630,34.540298 36.175835,35.365627 
	C48.003605,36.089844 59.898685,38.531124 71.341408,41.727142 
	C78.841988,43.822098 85.374031,44.325676 92.962959,42.139896 
	C104.265488,38.884518 115.984352,36.994694 127.601852,34.955666 
	C131.729279,34.231247 134.820755,32.550350 138.015091,29.910641 
	C146.590057,22.824545 155.411926,16.006117 164.474884,9.558054 
	C167.771927,7.212284 171.911316,5.798132 175.870728,4.687319 
	C184.553085,2.251481 191.674744,5.251937 194.076828,13.943146 
	C196.197403,21.615713 196.528534,29.953793 196.501053,37.994095 
	C196.479721,44.237736 193.062897,50.775459 194.144089,56.630577 
	C195.209930,62.402664 200.406723,67.298714 203.140121,72.896973 
	C211.954483,90.949646 213.811172,110.125839 211.140564,130.380478 
	C209.158310,130.603943 207.609207,130.310303 205.821960,129.904831 
	C205.385544,129.509872 205.187271,129.226730 205.173599,128.572235 
	C205.245941,119.289536 205.840515,110.301079 204.878159,101.482536 
	C202.700562,81.528633 194.365128,64.723587 177.688522,52.620174 
	C176.290833,51.605766 175.969055,49.108902 175.432541,47.063599 
	C178.151718,47.322239 180.585754,47.818058 183.180176,48.588181 
	C184.558456,49.895897 185.776382,50.929302 187.712952,52.572472 
	C190.217255,43.111721 191.043427,34.329063 190.563049,25.448126 
	C190.395737,22.355005 189.635834,19.182915 188.540649,16.275103 
	C186.525345,10.924317 182.468567,9.234868 176.957367,10.838009 
	C165.926163,14.046854 157.508438,21.391035 148.955765,28.506998 
	C147.084274,30.064112 145.435699,31.889133 142.988281,34.267246 
	C147.591019,34.960815 150.829239,35.448772 154.379486,36.092091 
	C155.540665,37.823162 156.389801,39.398872 156.834625,41.081429 
	C151.286591,41.124680 146.142868,41.061077 140.532181,40.981834 
	C133.676132,41.365944 127.287071,41.765694 120.617371,42.161392 
	C119.875801,42.421261 119.414879,42.685181 118.541397,42.958557 
	C111.743568,44.324490 105.358284,45.680962 98.674881,47.045128 
	C97.890259,47.345745 97.403763,47.638664 96.521561,47.944138 
	C90.086159,50.243679 84.046478,52.530663 77.648270,54.879143 
	C75.734779,55.806145 74.244141,56.826935 72.610931,57.503624 
	C69.558174,58.768475 66.422691,59.833652 63.252357,60.579220 
	C63.572849,58.130947 63.962612,56.085361 64.692337,54.071739 
	C67.654457,52.573246 70.276627,51.042793 73.938019,48.905788 
	C60.924026,44.416920 48.902901,41.386520 36.488144,41.241356 
	C27.118584,41.131805 23.551384,45.523624 25.118694,54.583462 
	C27.047482,65.732811 33.413383,74.827705 40.177574,84.513306 
	C41.452835,81.854126 42.304226,80.078812 43.401371,78.054230 
	C45.098034,74.416069 47.500130,73.291069 50.961998,75.132034 
	C50.369064,77.398750 50.084343,79.419456 49.165241,81.091431 
	C44.201859,90.120506 41.437916,99.710175 40.933784,110.017799 
	C40.344429,122.067871 43.517658,133.438980 47.456158,144.538467 
	C51.988457,157.311401 58.885685,168.462738 71.592102,175.029785 
	C75.747078,177.177200 78.960083,177.307358 83.004257,174.554489 
	C94.726128,166.575424 107.716393,161.810410 122.359573,160.938370 
	C124.468788,161.394379 126.197998,161.784943 128.100891,162.448364 
	C130.184204,164.502609 132.093842,166.284027 134.035980,168.396301 
	C135.592560,170.141708 137.116592,171.556259 138.686340,173.345917 
	C140.555710,178.734558 142.379379,183.748093 144.123352,189.117889 
	C143.360672,191.007614 142.677704,192.541092 141.626678,194.137253 
	C138.490234,194.728683 135.727234,195.288498 132.950897,195.771500 
	C131.766937,195.977478 130.271301,195.614899 129.407501,196.215591 
	C126.479668,198.251602 123.770950,200.602722 120.546471,202.869415 
	C118.106361,203.066238 116.098282,203.227081 113.692841,203.284912 
	C111.495026,203.662643 109.509712,203.808823 107.926880,204.683426 
	C101.833420,208.050415 95.868744,211.650482 89.856049,215.163635 
M95.951004,205.607040 
	C98.615700,203.754257 101.280403,201.901474 104.397293,199.734268 
	C96.357132,192.335754 93.467903,184.163605 98.606995,173.168533 
	C94.577805,175.199570 91.974518,176.276962 89.614037,177.744812 
	C81.859818,182.566727 73.911331,187.249557 69.904488,196.089508 
	C67.039459,202.410309 69.939972,207.609131 76.631104,209.134766 
	C83.385231,210.674774 89.374908,208.801834 95.951004,205.607040 
M124.499237,189.999405 
	C123.136314,188.327118 121.403610,186.825470 120.528152,184.928238 
	C119.834984,183.426056 120.193550,181.438583 120.085091,179.666595 
	C121.933746,180.193222 124.119850,180.269699 125.556122,181.346405 
	C128.035873,183.205368 129.882599,185.899368 132.330002,187.814896 
	C133.545486,188.766205 135.505096,188.766739 137.128067,189.197403 
	C137.099426,187.498581 137.728195,185.352097 136.928787,184.178146 
	C133.393890,178.987076 129.678177,173.871307 125.513283,169.185730 
	C124.239517,167.752747 120.446747,166.539185 119.307945,167.345123 
	C113.455811,171.486877 108.040833,176.260147 102.625443,180.987289 
	C101.964653,181.564087 102.006058,183.203857 102.086105,184.325012 
	C102.394432,188.644241 108.411011,196.111191 112.375153,196.857803 
	C117.986458,197.914673 121.778244,194.972305 124.499237,189.999405 
M99.580376,173.516342 
	C99.580376,173.516342 99.409286,173.415359 99.409286,173.415359 
	C99.409286,173.415359 99.430794,173.606461 99.580376,173.516342 
z"/>
<path fill="#8EDCE0" opacity="1.000000" stroke="none" 
	d="
M114.090210,203.387909 
	C116.098282,203.227081 118.106361,203.066238 120.591759,203.276459 
	C122.651680,212.114761 125.575615,220.014587 130.933044,227.263702 
	C133.999649,230.713181 137.037613,233.796051 140.099091,237.228180 
	C140.248718,237.878311 140.289551,238.285110 140.513000,238.464981 
	C159.526489,253.769135 180.613220,257.504974 203.499313,249.047867 
	C208.109253,247.344330 212.011887,243.726700 216.579803,240.966675 
	C218.949097,239.301880 220.979218,237.661972 223.319916,235.892761 
	C241.633850,217.504684 246.211121,196.073639 238.957336,171.536987 
	C240.762054,170.511505 242.353851,169.745880 243.945633,168.980255 
	C248.460846,177.261383 249.290771,186.358292 248.719208,195.418198 
	C248.015198,206.577515 245.099823,217.294479 239.053848,226.933670 
	C226.345596,247.194656 208.001740,258.086487 184.216385,259.957245 
	C183.240326,260.033997 182.277832,260.283234 180.686905,260.607178 
	C176.035934,260.169342 172.007065,259.576477 167.653473,258.807983 
	C164.896255,258.072571 162.463776,257.512787 159.716583,256.790649 
	C157.621124,255.978439 155.840393,255.328598 153.825043,254.448242 
	C151.378860,253.149460 149.167252,252.081146 146.768585,250.737305 
	C143.358902,248.499405 140.136292,246.537003 136.913696,244.574615 
	C133.848587,241.387680 130.783463,238.200729 127.332588,234.582397 
	C126.109482,232.739944 125.290527,231.317596 124.431763,229.919708 
	C119.381897,221.699539 115.447311,213.046585 114.090210,203.387909 
z"/>
<path fill="#636263" opacity="1.000000" stroke="none" 
	d="
M136.504547,244.655304 
	C140.136292,246.537003 143.358902,248.499405 146.310867,250.726685 
	C142.252563,251.203537 138.461395,251.366562 134.677917,251.637207 
	C125.786423,252.273209 126.569817,260.148743 131.275757,264.516235 
	C142.972488,275.371674 156.913818,280.699554 173.074783,278.935303 
	C179.263443,278.259705 181.616608,273.296631 177.803741,268.445892 
	C175.020538,264.905090 171.287720,262.110748 167.978210,258.983643 
	C172.007065,259.576477 176.035934,260.169342 180.394608,260.916321 
	C184.880768,265.936676 188.328262,271.305511 185.391815,277.807739 
	C182.298965,284.656250 175.630417,285.918793 168.950180,285.980957 
	C152.756393,286.131744 138.615936,280.653442 127.026276,269.309326 
	C122.641106,265.017059 119.363899,259.729584 121.920242,253.182785 
	C124.378624,246.886856 130.115967,245.458282 136.504547,244.655304 
z"/>
<path fill="#738890" opacity="1.000000" stroke="none" 
	d="
M244.106018,168.682068 
	C242.353851,169.745880 240.762054,170.511505 238.527664,171.577850 
	C229.209412,173.041962 221.907806,170.423553 215.972778,163.587540 
	C214.835999,161.715332 213.739960,160.187485 212.718750,158.269806 
	C211.710129,152.021179 212.068375,146.344803 215.193832,140.800491 
	C216.347229,139.179153 217.238235,137.742706 218.129242,136.306259 
	C218.288132,136.258423 218.470261,136.245575 218.602600,136.157745 
	C225.123077,131.830185 231.835648,128.810669 239.266312,134.040710 
	C246.317093,139.003387 251.712021,152.321060 249.415039,160.148453 
	C248.537247,163.139633 246.030685,165.652832 244.106018,168.682068 
M242.254532,149.487396 
	C241.052643,147.113617 240.068253,144.595261 238.605530,142.394882 
	C235.100006,137.121521 228.751022,136.411545 223.897018,140.541977 
	C219.217865,144.523605 218.026947,149.734238 219.102859,155.453339 
	C220.679626,163.834717 234.016251,168.453110 240.531708,162.990479 
	C244.883545,159.341858 244.032379,154.803986 242.254532,149.487396 
z"/>
<path fill="#B1B9C5" opacity="1.000000" stroke="none" 
	d="
M113.692841,203.284897 
	C115.447311,213.046585 119.381897,221.699539 124.431763,229.919708 
	C125.290527,231.317596 126.109482,232.739944 126.998947,234.490494 
	C111.239502,235.248367 98.489189,229.699677 89.932724,215.495209 
	C95.868744,211.650482 101.833420,208.050415 107.926880,204.683426 
	C109.509712,203.808823 111.495026,203.662643 113.692841,203.284897 
z"/>
<path fill="#92DAE0" opacity="1.000000" stroke="none" 
	d="
M217.982849,135.970306 
	C217.238235,137.742706 216.347229,139.179153 214.883209,140.653839 
	C211.391785,139.010132 208.473358,137.328156 205.638947,135.255768 
	C205.835342,133.249130 205.947739,131.632889 206.060120,130.016663 
	C207.609207,130.310303 209.158310,130.603943 211.018799,130.797241 
	C213.498947,132.342712 215.667679,133.988525 217.982849,135.970306 
z"/>
<path fill="#B1B8C4" opacity="1.000000" stroke="none" 
	d="
M96.917267,47.931580 
	C97.403763,47.638664 97.890259,47.345745 98.691895,47.443554 
	C99.354645,49.619511 99.383408,51.547077 100.105705,53.165039 
	C103.050034,59.760437 105.904358,66.433983 109.480148,72.684998 
	C110.476006,74.425911 114.614296,76.231369 115.940613,75.505005 
	C118.191910,74.272072 120.738091,71.044853 120.726517,68.667648 
	C120.684784,60.092129 119.627632,51.521549 118.953949,42.949100 
	C119.414879,42.685181 119.875801,42.421261 120.650764,42.546974 
	C123.789200,49.535759 126.291176,56.305946 129.643326,62.625145 
	C130.593384,64.416107 134.259872,66.043251 136.248734,65.636093 
	C138.126053,65.251778 140.586533,62.200424 140.779785,60.134193 
	C141.371811,53.803818 140.997620,47.383076 140.999161,40.997478 
	C146.142868,41.061077 151.286591,41.124680 157.211121,41.018433 
	C163.710434,42.999321 169.428925,45.150051 175.147400,47.300781 
	C175.969055,49.108902 176.290833,51.605766 177.688522,52.620174 
	C194.365128,64.723587 202.700562,81.528633 204.878159,101.482536 
	C205.840515,110.301079 205.245941,119.289536 204.792084,128.530930 
	C203.219788,128.966232 202.213593,129.071457 201.124802,128.812164 
	C199.000061,126.991806 196.957916,125.536003 195.087494,123.754478 
	C197.688660,119.318367 197.052078,117.646111 192.686508,118.113411 
	C187.801376,118.636345 182.978485,119.922371 178.207764,121.177544 
	C177.269745,121.424332 176.692734,123.043343 175.543274,124.041733 
	C155.854065,126.268524 140.043228,134.995193 127.785530,149.917648 
	C125.214684,153.047379 123.882515,157.194565 121.979568,160.872910 
	C107.716393,161.810410 94.726128,166.575424 83.004257,174.554489 
	C78.960083,177.307358 75.747078,177.177200 71.592102,175.029785 
	C58.885685,168.462738 51.988457,157.311401 47.456158,144.538467 
	C43.517658,133.438980 40.344429,122.067871 40.933784,110.017799 
	C41.437916,99.710175 44.201859,90.120506 49.165241,81.091431 
	C50.084343,79.419456 50.369064,77.398750 50.962486,74.801987 
	C55.092800,69.703949 59.207214,65.342926 63.321625,60.981903 
	C66.422691,59.833652 69.558174,58.768475 72.610931,57.503624 
	C74.244141,56.826935 75.734779,55.806145 77.678513,55.267609 
	C80.697548,61.939571 82.093948,68.858147 87.928688,73.576073 
	C92.029060,76.891602 95.600731,76.813934 96.312965,71.788307 
	C97.421761,63.964661 96.803551,55.896255 96.917267,47.931580 
M125.156281,132.904953 
	C126.248985,132.525635 127.582916,132.423340 128.392242,131.718597 
	C131.729492,128.812515 135.383133,128.489731 139.690262,128.915634 
	C145.232010,129.463593 150.038345,125.452652 150.617508,120.225693 
	C150.787323,118.693039 149.204910,116.966248 148.425583,115.328445 
	C147.207779,116.321426 145.856308,117.193375 144.813660,118.344925 
	C143.949341,119.299522 143.635315,121.351227 142.749664,121.566177 
	C140.746384,122.052399 138.540634,121.704292 136.417236,121.695526 
	C136.512100,120.060745 136.531189,118.416817 136.726868,116.794197 
	C136.871811,115.592323 137.848129,113.971809 137.377029,113.336716 
	C136.678467,112.394951 134.991302,111.646973 133.787933,111.729927 
	C131.167023,111.910606 128.519913,112.466476 126.019737,113.285095 
	C124.963837,113.630821 123.661568,114.963799 123.555969,115.962708 
	C123.458420,116.885391 124.654106,118.639908 125.553482,118.848206 
	C128.821548,119.605125 128.900177,122.171371 127.461159,123.609230 
	C126.083168,124.986107 123.311562,125.199951 121.106163,125.391273 
	C120.335098,125.458168 119.551445,123.573753 118.549759,123.227180 
	C117.173576,122.751030 115.584587,122.889915 114.086784,122.765259 
	C114.023575,124.273895 113.385574,126.091995 114.001076,127.235222 
	C116.154434,131.234879 119.912514,132.827591 125.156281,132.904953 
M174.353989,109.120201 
	C176.674866,110.016716 179.561493,111.488426 180.445312,108.017982 
	C180.758041,106.790001 178.355011,104.085976 176.618713,103.258743 
	C169.741302,99.982086 159.999542,102.707184 156.302917,108.871201 
	C155.513611,110.187347 156.156540,112.362434 156.139648,114.141815 
	C157.841904,113.718094 160.182999,113.853935 161.132004,112.770454 
	C164.601196,108.809578 168.615509,107.589806 174.353989,109.120201 
M103.743431,126.602493 
	C104.862053,125.666862 106.851997,124.758415 106.882248,123.788834 
	C106.921463,122.532028 105.693329,120.729523 104.500755,120.023796 
	C97.534607,115.901421 87.372276,118.217064 82.698944,125.048935 
	C81.922348,126.184227 82.445946,128.208908 82.368713,129.822601 
	C84.048492,129.553360 86.353355,129.890625 87.302475,128.912445 
	C92.024353,124.045937 97.097527,122.982964 103.743431,126.602493 
M75.715431,142.944580 
	C74.622673,144.157684 73.529907,145.370789 72.437141,146.583893 
	C74.269432,147.336777 76.185638,148.870193 77.916969,148.684067 
	C81.815399,148.264908 85.707466,147.238571 89.422600,145.944107 
	C90.824677,145.455582 91.731354,143.545258 92.863853,142.283051 
	C91.410736,141.528946 89.861465,139.999619 88.522469,140.165680 
	C84.459084,140.669662 80.477036,141.829483 75.715431,142.944580 
M84.993591,153.489090 
	C83.077553,154.755386 80.941582,155.800354 79.344368,157.387497 
	C78.617729,158.109543 78.503288,160.106155 78.965660,161.143890 
	C79.295479,161.884155 81.448456,162.659134 82.103783,162.269150 
	C86.181137,159.842621 90.156525,157.210785 93.923737,154.330505 
	C94.549713,153.851913 94.463882,151.457535 93.825409,150.622604 
	C93.317924,149.958984 91.314568,149.925507 90.242462,150.326492 
	C88.586456,150.945847 87.158531,152.175034 84.993591,153.489090 
M148.693665,97.029556 
	C151.442566,96.611702 154.356750,96.606903 156.870300,95.600983 
	C158.119186,95.101181 159.728271,92.208473 159.293869,91.351364 
	C157.128342,87.078491 153.553009,89.971046 150.601196,90.412872 
	C148.250504,90.764732 145.403625,91.375961 146.102509,94.923149 
	C146.252274,95.683243 147.251663,96.275948 148.693665,97.029556 
M102.645744,107.259132 
	C104.086700,106.921745 105.739578,106.906837 106.900764,106.143730 
	C107.810417,105.545921 108.814598,103.752205 108.516052,102.972572 
	C108.078255,101.829262 106.447716,100.294495 105.443481,100.376289 
	C102.503098,100.615784 99.522629,101.319138 96.771362,102.389503 
	C95.847580,102.748909 95.124321,104.771271 95.161865,106.007660 
	C95.183098,106.707451 96.862709,107.718498 97.926582,107.930298 
	C99.159485,108.175743 100.536354,107.698021 102.645744,107.259132 
z"/>
<path fill="#E2FAF8" opacity="1.000000" stroke="none" 
	d="
M205.554947,135.646194 
	C208.473358,137.328156 211.391785,139.010132 214.620819,140.838745 
	C212.068375,146.344803 211.710129,152.021179 212.391968,158.354706 
	C210.875656,159.810242 209.654327,160.694366 208.662918,161.787079 
	C200.256134,171.052750 203.686813,182.049576 215.905273,184.672943 
	C219.452026,185.434433 223.238693,185.138153 226.743057,186.015259 
	C228.873428,186.548477 230.674042,188.399216 232.622787,189.658096 
	C231.394150,191.494370 230.557907,194.255585 228.856476,194.977417 
	C225.132019,196.557510 221.008972,197.664536 216.976151,197.954224 
	C208.577545,198.557465 201.386673,201.176926 198.042068,209.336639 
	C194.691376,217.511124 196.860870,225.245316 203.091156,231.267273 
	C206.977036,235.023209 211.824631,237.784134 216.240646,240.991592 
	C212.011887,243.726700 208.109253,247.344330 203.499313,249.047867 
	C180.613220,257.504974 159.526489,253.769135 140.513000,238.464981 
	C140.289551,238.285110 140.248718,237.878311 140.547821,237.239288 
	C144.440979,237.176956 147.908295,237.461151 151.377014,237.726959 
	C161.649933,238.514160 171.760391,238.336594 180.417511,231.628876 
	C187.491196,226.148056 188.054932,217.459946 181.537598,211.330124 
	C178.921860,208.869888 175.622849,207.084457 172.492203,205.233063 
	C163.100204,199.678787 153.637909,194.243408 144.203049,188.761627 
	C142.379379,183.748093 140.555710,178.734558 139.110962,173.201630 
	C146.072540,172.611145 152.655258,172.546265 159.237808,172.467194 
	C165.343567,172.393860 171.596924,173.110519 177.518204,172.023880 
	C185.277298,170.600037 188.717117,163.181976 185.754913,155.896133 
	C184.717361,153.344116 183.279007,150.562927 181.210205,148.895981 
	C175.047440,143.930313 168.480927,139.465714 162.149384,134.458069 
	C166.639893,133.075348 171.054993,131.183090 175.466034,131.192490 
	C183.342712,131.209274 191.216965,132.373718 199.071777,133.439529 
	C198.391479,135.845673 197.363205,137.842575 197.206070,139.905807 
	C197.107407,141.201248 198.316635,142.596313 198.939087,143.946671 
	C200.265091,143.294678 202.079895,142.978226 202.808884,141.916351 
	C204.077316,140.068695 204.675674,137.761017 205.554947,135.646194 
z"/>
<path fill="#9AD57C" opacity="1.000000" stroke="none" 
	d="
M130.904404,226.897095 
	C125.575615,220.014587 122.651680,212.114761 121.023796,203.240479 
	C123.770950,200.602722 126.479668,198.251602 129.407501,196.215591 
	C130.271301,195.614899 131.766937,195.977478 132.950897,195.771500 
	C135.727234,195.288498 138.490234,194.728683 141.784363,194.427521 
	C146.565903,197.783264 150.587570,201.316879 155.133713,203.942337 
	C161.570282,207.659546 168.527374,210.468781 175.013382,214.109039 
	C181.185013,217.572845 181.227219,223.780075 175.219269,227.407135 
	C168.459915,231.487793 160.881836,232.579453 153.226776,231.470352 
	C145.722641,230.383102 138.340240,228.455750 130.904404,226.897095 
z"/>
<path fill="#9AD57C" opacity="1.000000" stroke="none" 
	d="
M134.003464,168.065430 
	C132.093842,166.284027 130.184204,164.502609 128.149719,162.081116 
	C134.133682,150.609314 143.044846,142.771362 154.177353,137.412323 
	C156.351456,138.851562 158.382568,139.952744 160.349396,141.158768 
	C166.965302,145.215500 174.029327,148.710892 178.373398,155.617188 
	C181.865952,161.169739 180.628418,164.837433 174.344330,166.004639 
	C170.860748,166.651688 167.175247,166.520966 163.603531,166.325256 
	C153.659409,165.780365 143.595123,162.711472 134.003464,168.065430 
z"/>
<path fill="#AFB7C3" opacity="1.000000" stroke="none" 
	d="
M95.617416,205.777039 
	C89.374908,208.801834 83.385231,210.674774 76.631104,209.134766 
	C69.939972,207.609131 67.039459,202.410309 69.904488,196.089508 
	C73.911331,187.249557 81.859818,182.566727 89.614037,177.744812 
	C91.974518,176.276962 94.577805,175.199570 98.606995,173.168533 
	C93.467903,184.163605 96.357132,192.335754 104.397293,199.734268 
	C101.280403,201.901474 98.615700,203.754257 95.617416,205.777039 
z"/>
<path fill="#84B766" opacity="1.000000" stroke="none" 
	d="
M130.933044,227.263718 
	C138.340240,228.455750 145.722641,230.383102 153.226776,231.470352 
	C160.881836,232.579453 168.459915,231.487793 175.219269,227.407135 
	C181.227219,223.780075 181.185013,217.572845 175.013382,214.109039 
	C168.527374,210.468781 161.570282,207.659546 155.133713,203.942337 
	C150.587570,201.316879 146.565903,197.783264 142.152420,194.364822 
	C142.677704,192.541092 143.360672,191.007614 144.123352,189.117889 
	C153.637909,194.243408 163.100204,199.678787 172.492203,205.233063 
	C175.622849,207.084457 178.921860,208.869888 181.537598,211.330124 
	C188.054932,217.459946 187.491196,226.148056 180.417511,231.628876 
	C171.760391,238.336594 161.649933,238.514160 151.377014,237.726959 
	C147.908295,237.461151 144.440979,237.176956 140.524292,236.890030 
	C137.037613,233.796051 133.999649,230.713181 130.933044,227.263718 
z"/>
<path fill="#AFB7C3" opacity="1.000000" stroke="none" 
	d="
M124.644409,190.321915 
	C121.778244,194.972305 117.986458,197.914673 112.375153,196.857803 
	C108.411011,196.111191 102.394432,188.644241 102.086105,184.325012 
	C102.006058,183.203857 101.964653,181.564087 102.625443,180.987289 
	C108.040833,176.260147 113.455811,171.486877 119.307945,167.345123 
	C120.446747,166.539185 124.239517,167.752747 125.513283,169.185730 
	C129.678177,173.871307 133.393890,178.987076 136.928787,184.178146 
	C137.728195,185.352097 137.099426,187.498581 137.128067,189.197403 
	C135.505096,188.766739 133.545486,188.766205 132.330002,187.814896 
	C129.882599,185.899368 128.035873,183.205368 125.556122,181.346405 
	C124.119850,180.269699 121.933746,180.193222 120.085091,179.666595 
	C120.193550,181.438583 119.834984,183.426056 120.528152,184.928238 
	C121.403610,186.825470 123.136314,188.327118 124.644409,190.321915 
z"/>
<path fill="#FBFCFC" opacity="1.000000" stroke="none" 
	d="
M63.252357,60.579216 
	C59.207214,65.342926 55.092800,69.703949 50.977905,74.395020 
	C47.500130,73.291069 45.098034,74.416069 43.063606,77.841675 
	C41.635124,75.996597 40.060116,74.102386 40.091904,72.235519 
	C40.165997,67.884079 39.381496,64.316559 36.163551,61.019405 
	C33.450611,58.239689 31.892845,54.603634 34.608246,50.640629 
	C37.290379,46.726185 41.319160,45.209324 45.469795,46.498337 
	C51.922348,48.502224 58.073479,51.476700 64.352371,54.039776 
	C63.962612,56.085361 63.572849,58.130947 63.252357,60.579216 
z"/>
<path fill="#FBFCFC" opacity="1.000000" stroke="none" 
	d="
M175.432526,47.063602 
	C169.428925,45.150051 163.710434,42.999321 157.615448,40.911583 
	C156.389801,39.398872 155.540665,37.823162 154.401627,35.744987 
	C157.764877,28.363415 162.682190,22.704762 169.719452,19.099485 
	C173.367966,17.230303 176.969116,17.654959 179.993271,20.151756 
	C182.769455,22.443827 183.555496,25.646236 182.154587,29.158092 
	C180.647186,32.936836 180.424591,36.370846 182.686249,40.259388 
	C183.881180,42.313885 182.976532,45.589546 183.019806,48.313873 
	C180.585754,47.818058 178.151718,47.322239 175.432526,47.063602 
z"/>
<path fill="#84B866" opacity="1.000000" stroke="none" 
	d="
M134.035980,168.396301 
	C143.595123,162.711472 153.659409,165.780365 163.603531,166.325256 
	C167.175247,166.520966 170.860748,166.651688 174.344330,166.004639 
	C180.628418,164.837433 181.865952,161.169739 178.373398,155.617188 
	C174.029327,148.710892 166.965302,145.215500 160.349396,141.158768 
	C158.382568,139.952744 156.351456,138.851562 154.499969,137.216064 
	C157.124146,136.088303 159.598160,135.446823 162.072159,134.805359 
	C168.480927,139.465714 175.047440,143.930313 181.210205,148.895981 
	C183.279007,150.562927 184.717361,153.344116 185.754913,155.896133 
	C188.717117,163.181976 185.277298,170.600037 177.518204,172.023880 
	C171.596924,173.110519 165.343567,172.393860 159.237808,172.467194 
	C152.655258,172.546265 146.072540,172.611145 139.065277,172.826508 
	C137.116592,171.556259 135.592560,170.141708 134.035980,168.396301 
z"/>
<path fill="#8DDBE0" opacity="1.000000" stroke="none" 
	d="
M162.149384,134.458069 
	C159.598160,135.446823 157.124146,136.088303 154.327530,136.926025 
	C143.044846,142.771362 134.133682,150.609314 127.976028,161.808258 
	C126.197998,161.784943 124.468788,161.394379 122.359573,160.938370 
	C123.882515,157.194565 125.214684,153.047379 127.785530,149.917648 
	C140.043228,134.995193 155.854065,126.268524 175.856735,124.318466 
	C181.703339,124.713943 186.830551,124.844963 192.196747,124.892906 
	C192.657532,124.561104 192.879303,124.312378 193.404144,124.068619 
	C194.110062,124.075790 194.512909,124.077995 194.915771,124.080200 
	C196.957916,125.536003 199.000061,126.991806 200.988373,129.105621 
	C200.320435,130.861847 199.706329,131.960083 199.092224,133.058334 
	C191.216965,132.373718 183.342712,131.209274 175.466034,131.192490 
	C171.054993,131.183090 166.639893,133.075348 162.149384,134.458069 
z"/>
<path fill="#B1B8C4" opacity="1.000000" stroke="none" 
	d="
M183.180176,48.588181 
	C182.976532,45.589546 183.881180,42.313885 182.686249,40.259388 
	C180.424591,36.370846 180.647186,32.936836 182.154587,29.158092 
	C183.555496,25.646236 182.769455,22.443827 179.993271,20.151756 
	C176.969116,17.654959 173.367966,17.230303 169.719452,19.099485 
	C162.682190,22.704762 157.764877,28.363415 154.089600,35.589622 
	C150.829239,35.448772 147.591019,34.960815 142.988281,34.267246 
	C145.435699,31.889133 147.084274,30.064112 148.955765,28.506998 
	C157.508438,21.391035 165.926163,14.046854 176.957367,10.838009 
	C182.468567,9.234868 186.525345,10.924317 188.540649,16.275103 
	C189.635834,19.182915 190.395737,22.355005 190.563049,25.448126 
	C191.043427,34.329063 190.217255,43.111721 187.712952,52.572472 
	C185.776382,50.929302 184.558456,49.895897 183.180176,48.588181 
z"/>
<path fill="#B1B9C4" opacity="1.000000" stroke="none" 
	d="
M64.692337,54.071739 
	C58.073479,51.476700 51.922348,48.502224 45.469795,46.498337 
	C41.319160,45.209324 37.290379,46.726185 34.608246,50.640629 
	C31.892845,54.603634 33.450611,58.239689 36.163551,61.019405 
	C39.381496,64.316559 40.165997,67.884079 40.091904,72.235519 
	C40.060116,74.102386 41.635124,75.996597 42.817848,78.090942 
	C42.304226,80.078812 41.452835,81.854126 40.177574,84.513306 
	C33.413383,74.827705 27.047482,65.732811 25.118694,54.583462 
	C23.551384,45.523624 27.118584,41.131805 36.488144,41.241356 
	C48.902901,41.386520 60.924026,44.416920 73.938019,48.905788 
	C70.276627,51.042793 67.654457,52.573246 64.692337,54.071739 
z"/>
<path fill="#95A1B2" opacity="1.000000" stroke="none" 
	d="
M118.541397,42.958557 
	C119.627632,51.521549 120.684784,60.092129 120.726517,68.667648 
	C120.738091,71.044853 118.191910,74.272072 115.940613,75.505005 
	C114.614296,76.231369 110.476006,74.425911 109.480148,72.684998 
	C105.904358,66.433983 103.050034,59.760437 100.105705,53.165039 
	C99.383408,51.547077 99.354645,49.619511 98.990021,47.435856 
	C105.358284,45.680962 111.743568,44.324490 118.541397,42.958557 
z"/>
<path fill="#95A1B2" opacity="1.000000" stroke="none" 
	d="
M140.532181,40.981834 
	C140.997620,47.383076 141.371811,53.803818 140.779785,60.134193 
	C140.586533,62.200424 138.126053,65.251778 136.248734,65.636093 
	C134.259872,66.043251 130.593384,64.416107 129.643326,62.625145 
	C126.291176,56.305946 123.789200,49.535759 120.931412,42.551025 
	C127.287071,41.765694 133.676132,41.365944 140.532181,40.981834 
z"/>
<path fill="#95A1B2" opacity="1.000000" stroke="none" 
	d="
M96.521553,47.944138 
	C96.803551,55.896255 97.421761,63.964661 96.312965,71.788307 
	C95.600731,76.813934 92.029060,76.891602 87.928688,73.576073 
	C82.093948,68.858147 80.697548,61.939571 78.037033,55.206108 
	C84.046478,52.530663 90.086159,50.243679 96.521553,47.944138 
z"/>
<path fill="#616668" opacity="1.000000" stroke="none" 
	d="
M199.071777,133.439529 
	C199.706329,131.960083 200.320435,130.861847 201.070969,129.470154 
	C202.213593,129.071457 203.219788,128.966232 204.607498,128.902313 
	C205.187271,129.226730 205.385544,129.509872 205.821960,129.904831 
	C205.947739,131.632889 205.835342,133.249130 205.638947,135.255768 
	C204.675674,137.761017 204.077316,140.068695 202.808884,141.916351 
	C202.079895,142.978226 200.265091,143.294678 198.939087,143.946671 
	C198.316635,142.596313 197.107407,141.201248 197.206070,139.905807 
	C197.363205,137.842575 198.391479,135.845673 199.071777,133.439529 
z"/>
<path fill="#AFB7C3" opacity="1.000000" stroke="none" 
	d="
M99.505585,173.561401 
	C99.430794,173.606461 99.409286,173.415359 99.409286,173.415359 
	C99.409286,173.415359 99.580376,173.516342 99.505585,173.561401 
z"/>
<path fill="#9AD57D" opacity="1.000000" stroke="none" 
	d="
M216.013489,163.931885 
	C221.907806,170.423553 229.209412,173.041962 238.314758,171.837708 
	C246.211121,196.073639 241.633850,217.504684 222.941895,235.888519 
	C217.369736,233.037842 211.652771,230.878555 207.773499,226.918884 
	C199.311691,218.281677 202.047791,206.411331 214.493027,204.915115 
	C216.945343,204.620270 219.389053,204.144012 221.848785,204.042023 
	C228.241119,203.776947 233.378235,201.077103 237.230576,196.101257 
	C241.069092,191.143265 239.476242,183.810699 233.655579,181.505707 
	C229.770035,179.967056 225.371948,179.528488 221.152008,179.083939 
	C217.043427,178.651108 212.721741,178.323425 211.267792,173.921280 
	C209.843979,169.610306 212.339722,166.281265 216.013489,163.931885 
z"/>
<path fill="#777677" opacity="1.000000" stroke="none" 
	d="
M167.653473,258.807983 
	C171.287720,262.110748 175.020538,264.905090 177.803741,268.445892 
	C181.616608,273.296631 179.263443,278.259705 173.074783,278.935303 
	C156.913818,280.699554 142.972488,275.371674 131.275757,264.516235 
	C126.569817,260.148743 125.786423,252.273209 134.677917,251.637207 
	C138.461395,251.366562 142.252563,251.203537 146.497955,251.002197 
	C149.167252,252.081146 151.378860,253.149460 153.780182,254.853928 
	C152.991989,258.258606 151.739227,260.971771 151.165543,263.821655 
	C150.921280,265.035065 152.097382,266.534393 152.628006,267.903809 
	C154.109787,267.193329 156.305923,266.863953 156.929321,265.695496 
	C158.368683,262.997620 159.045303,259.892792 160.031311,256.953033 
	C162.463776,257.512787 164.896255,258.072571 167.653473,258.807983 
z"/>
<path fill="#83B865" opacity="1.000000" stroke="none" 
	d="
M215.972778,163.587540 
	C212.339722,166.281265 209.843979,169.610306 211.267792,173.921280 
	C212.721741,178.323425 217.043427,178.651108 221.152008,179.083939 
	C225.371948,179.528488 229.770035,179.967056 233.655579,181.505707 
	C239.476242,183.810699 241.069092,191.143265 237.230576,196.101257 
	C233.378235,201.077103 228.241119,203.776947 221.848785,204.042023 
	C219.389053,204.144012 216.945343,204.620270 214.493027,204.915115 
	C202.047791,206.411331 199.311691,218.281677 207.773499,226.918884 
	C211.652771,230.878555 217.369736,233.037842 222.631317,236.017838 
	C220.979218,237.661972 218.949097,239.301880 216.579803,240.966675 
	C211.824631,237.784134 206.977036,235.023209 203.091156,231.267273 
	C196.860870,225.245316 194.691376,217.511124 198.042068,209.336639 
	C201.386673,201.176926 208.577545,198.557465 216.976151,197.954224 
	C221.008972,197.664536 225.132019,196.557510 228.856476,194.977417 
	C230.557907,194.255585 231.394150,191.494370 232.622787,189.658096 
	C230.674042,188.399216 228.873428,186.548477 226.743057,186.015259 
	C223.238693,185.138153 219.452026,185.434433 215.905273,184.672943 
	C203.686813,182.049576 200.256134,171.052750 208.662918,161.787079 
	C209.654327,160.694366 210.875656,159.810242 212.317154,158.744522 
	C213.739960,160.187485 214.835999,161.715332 215.972778,163.587540 
z"/>
<path fill="#5F5F60" opacity="1.000000" stroke="none" 
	d="
M159.716583,256.790649 
	C159.045303,259.892792 158.368683,262.997620 156.929321,265.695496 
	C156.305923,266.863953 154.109787,267.193329 152.628006,267.903809 
	C152.097382,266.534393 150.921280,265.035065 151.165543,263.821655 
	C151.739227,260.971771 152.991989,258.258606 154.014786,255.084412 
	C155.840393,255.328598 157.621124,255.978439 159.716583,256.790649 
z"/>
<path fill="#AFB7C3" opacity="1.000000" stroke="none" 
	d="
M242.418915,149.841904 
	C244.032379,154.803986 244.883545,159.341858 240.531708,162.990479 
	C234.016251,168.453110 220.679626,163.834717 219.102859,155.453339 
	C218.026947,149.734238 219.217865,144.523605 223.897018,140.541977 
	C228.751022,136.411545 235.100006,137.121521 238.605530,142.394882 
	C240.068253,144.595261 241.052643,147.113617 242.418915,149.841904 
z"/>
<path fill="#728591" opacity="1.000000" stroke="none" 
	d="
M124.756668,132.917908 
	C119.912514,132.827591 116.154434,131.234879 114.001076,127.235222 
	C113.385574,126.091995 114.023575,124.273895 114.086784,122.765259 
	C115.584587,122.889915 117.173576,122.751030 118.549759,123.227180 
	C119.551445,123.573753 120.335098,125.458168 121.106163,125.391273 
	C123.311562,125.199951 126.083168,124.986107 127.461159,123.609230 
	C128.900177,122.171371 128.821548,119.605125 125.553482,118.848206 
	C124.654106,118.639908 123.458420,116.885391 123.555969,115.962708 
	C123.661568,114.963799 124.963837,113.630821 126.019737,113.285095 
	C128.519913,112.466476 131.167023,111.910606 133.787933,111.729927 
	C134.991302,111.646973 136.678467,112.394951 137.377029,113.336716 
	C137.848129,113.971809 136.871811,115.592323 136.726868,116.794197 
	C136.531189,118.416817 136.512100,120.060745 136.417236,121.695526 
	C138.540634,121.704292 140.746384,122.052399 142.749664,121.566177 
	C143.635315,121.351227 143.949341,119.299522 144.813660,118.344925 
	C145.856308,117.193375 147.207779,116.321426 148.425583,115.328445 
	C149.204910,116.966248 150.787323,118.693039 150.617508,120.225693 
	C150.038345,125.452652 145.232010,129.463593 139.690262,128.915634 
	C135.383133,128.489731 131.729492,128.812515 128.392242,131.718597 
	C127.582916,132.423340 126.248985,132.525635 124.756668,132.917908 
z"/>
<path fill="#636266" opacity="1.000000" stroke="none" 
	d="
M173.963333,109.019600 
	C168.615509,107.589806 164.601196,108.809578 161.132004,112.770454 
	C160.182999,113.853935 157.841904,113.718094 156.139648,114.141815 
	C156.156540,112.362434 155.513611,110.187347 156.302917,108.871201 
	C159.999542,102.707184 169.741302,99.982086 176.618713,103.258743 
	C178.355011,104.085976 180.758041,106.790001 180.445312,108.017982 
	C179.561493,111.488426 176.674866,110.016716 173.963333,109.019600 
z"/>
<path fill="#626165" opacity="1.000000" stroke="none" 
	d="
M103.387375,126.475616 
	C97.097527,122.982964 92.024353,124.045937 87.302475,128.912445 
	C86.353355,129.890625 84.048492,129.553360 82.368713,129.822601 
	C82.445946,128.208908 81.922348,126.184227 82.698944,125.048935 
	C87.372276,118.217064 97.534607,115.901421 104.500755,120.023796 
	C105.693329,120.729523 106.921463,122.532028 106.882248,123.788834 
	C106.851997,124.758415 104.862053,125.666862 103.387375,126.475616 
z"/>
<path fill="#98A3B2" opacity="1.000000" stroke="none" 
	d="
M76.089371,142.839218 
	C80.477036,141.829483 84.459084,140.669662 88.522469,140.165680 
	C89.861465,139.999619 91.410736,141.528946 92.863853,142.283051 
	C91.731354,143.545258 90.824677,145.455582 89.422600,145.944107 
	C85.707466,147.238571 81.815399,148.264908 77.916969,148.684067 
	C76.185638,148.870193 74.269432,147.336777 72.437141,146.583893 
	C73.529907,145.370789 74.622673,144.157684 76.089371,142.839218 
z"/>
<path fill="#94A5B5" opacity="1.000000" stroke="none" 
	d="
M195.087494,123.754486 
	C194.512909,124.077995 194.110062,124.075790 193.158844,124.143188 
	C192.392899,124.467194 192.175323,124.721588 191.957748,124.975983 
	C186.830551,124.844963 181.703339,124.713943 176.262695,124.306206 
	C176.692734,123.043343 177.269745,121.424332 178.207764,121.177544 
	C182.978485,119.922371 187.801376,118.636345 192.686508,118.113411 
	C197.052078,117.646111 197.688660,119.318367 195.087494,123.754486 
z"/>
<path fill="#98A3B3" opacity="1.000000" stroke="none" 
	d="
M85.313736,153.317337 
	C87.158531,152.175034 88.586456,150.945847 90.242462,150.326492 
	C91.314568,149.925507 93.317924,149.958984 93.825409,150.622604 
	C94.463882,151.457535 94.549713,153.851913 93.923737,154.330505 
	C90.156525,157.210785 86.181137,159.842621 82.103783,162.269150 
	C81.448456,162.659134 79.295479,161.884155 78.965660,161.143890 
	C78.503288,160.106155 78.617729,158.109543 79.344368,157.387497 
	C80.941582,155.800354 83.077553,154.755386 85.313736,153.317337 
z"/>
<path fill="#F5F7F7" opacity="1.000000" stroke="none" 
	d="
M148.276672,96.987656 
	C147.251663,96.275948 146.252274,95.683243 146.102509,94.923149 
	C145.403625,91.375961 148.250504,90.764732 150.601196,90.412872 
	C153.553009,89.971046 157.128342,87.078491 159.293869,91.351364 
	C159.728271,92.208473 158.119186,95.101181 156.870300,95.600983 
	C154.356750,96.606903 151.442566,96.611702 148.276672,96.987656 
z"/>
<path fill="#F6F8F9" opacity="1.000000" stroke="none" 
	d="
M102.248230,107.396683 
	C100.536354,107.698021 99.159485,108.175743 97.926582,107.930298 
	C96.862709,107.718498 95.183098,106.707451 95.161865,106.007660 
	C95.124321,104.771271 95.847580,102.748909 96.771362,102.389503 
	C99.522629,101.319138 102.503098,100.615784 105.443481,100.376289 
	C106.447716,100.294495 108.078255,101.829262 108.516052,102.972572 
	C108.814598,103.752205 107.810417,105.545921 106.900764,106.143730 
	C105.739578,106.906837 104.086700,106.921745 102.248230,107.396683 
z"/>
<path fill="#B1B8C4" opacity="1.000000" stroke="none" 
	d="
M192.196747,124.892906 
	C192.175323,124.721588 192.392899,124.467194 192.855774,124.138229 
	C192.879303,124.312378 192.657532,124.561104 192.196747,124.892906 
z"/>
</svg>